<mxfile host="app.diagrams.net" modified="2021-04-12T07:02:34.447Z" agent="5.0 (Windows NT 10.0; Win64; x64) AppleWebKit/537.36 (KHTML, like Gecko) Chrome/89.0.4389.114 Safari/537.36" etag="U5-fBei4IQ1KOM_6vvCE" version="14.5.8" type="github">
  <diagram id="r-ECCvdsahkgzZmy2Sls" name="Page-1">
    <mxGraphModel dx="1422" dy="794" grid="1" gridSize="10" guides="1" tooltips="1" connect="1" arrows="1" fold="1" page="1" pageScale="1" pageWidth="850" pageHeight="1100" math="0" shadow="0">
      <root>
        <mxCell id="0" />
        <mxCell id="1" parent="0" />
        <mxCell id="hSSG6MMnjUU0kWjoDqOR-1" value="Đơn vị" style="swimlane;fontStyle=0;childLayout=stackLayout;horizontal=1;startSize=26;horizontalStack=0;resizeParent=1;resizeParentMax=0;resizeLast=0;collapsible=1;marginBottom=0;align=center;fontSize=14;" parent="1" vertex="1">
          <mxGeometry x="200" y="60" width="160" height="176" as="geometry">
            <mxRectangle x="50" y="60" width="50" height="26" as="alternateBounds" />
          </mxGeometry>
        </mxCell>
        <mxCell id="hSSG6MMnjUU0kWjoDqOR-2" value="Mã đơn vị" style="text;strokeColor=none;fillColor=none;spacingLeft=4;spacingRight=4;overflow=hidden;rotatable=0;points=[[0,0.5],[1,0.5]];portConstraint=eastwest;fontSize=12;fontStyle=1" parent="hSSG6MMnjUU0kWjoDqOR-1" vertex="1">
          <mxGeometry y="26" width="160" height="30" as="geometry" />
        </mxCell>
        <mxCell id="hSSG6MMnjUU0kWjoDqOR-3" value="Tên đơn vị" style="text;strokeColor=none;fillColor=none;spacingLeft=4;spacingRight=4;overflow=hidden;rotatable=0;points=[[0,0.5],[1,0.5]];portConstraint=eastwest;fontSize=12;fontStyle=1" parent="hSSG6MMnjUU0kWjoDqOR-1" vertex="1">
          <mxGeometry y="56" width="160" height="30" as="geometry" />
        </mxCell>
        <mxCell id="hSSG6MMnjUU0kWjoDqOR-4" value="Trạng thái" style="text;strokeColor=none;fillColor=none;spacingLeft=4;spacingRight=4;overflow=hidden;rotatable=0;points=[[0,0.5],[1,0.5]];portConstraint=eastwest;fontSize=12;" parent="hSSG6MMnjUU0kWjoDqOR-1" vertex="1">
          <mxGeometry y="86" width="160" height="30" as="geometry" />
        </mxCell>
        <mxCell id="hSSG6MMnjUU0kWjoDqOR-9" value="Ngày thành lập" style="text;strokeColor=none;fillColor=none;spacingLeft=4;spacingRight=4;overflow=hidden;rotatable=0;points=[[0,0.5],[1,0.5]];portConstraint=eastwest;fontSize=12;" parent="hSSG6MMnjUU0kWjoDqOR-1" vertex="1">
          <mxGeometry y="116" width="160" height="30" as="geometry" />
        </mxCell>
        <mxCell id="hSSG6MMnjUU0kWjoDqOR-10" value="Mã Đơn vị cấp trên" style="text;strokeColor=none;fillColor=none;spacingLeft=4;spacingRight=4;overflow=hidden;rotatable=0;points=[[0,0.5],[1,0.5]];portConstraint=eastwest;fontSize=12;fontStyle=1" parent="hSSG6MMnjUU0kWjoDqOR-1" vertex="1">
          <mxGeometry y="146" width="160" height="30" as="geometry" />
        </mxCell>
        <mxCell id="hSSG6MMnjUU0kWjoDqOR-11" value="" style="edgeStyle=entityRelationEdgeStyle;fontSize=12;html=1;endArrow=ERzeroToOne;endFill=1;exitX=1;exitY=0.5;exitDx=0;exitDy=0;entryX=1;entryY=0.5;entryDx=0;entryDy=0;" parent="hSSG6MMnjUU0kWjoDqOR-1" source="hSSG6MMnjUU0kWjoDqOR-2" target="hSSG6MMnjUU0kWjoDqOR-4" edge="1">
          <mxGeometry width="100" height="100" relative="1" as="geometry">
            <mxPoint x="320" y="320" as="sourcePoint" />
            <mxPoint x="420" y="220" as="targetPoint" />
          </mxGeometry>
        </mxCell>
        <mxCell id="hSSG6MMnjUU0kWjoDqOR-5" value="Chức danh" style="swimlane;fontStyle=0;childLayout=stackLayout;horizontal=1;startSize=26;horizontalStack=0;resizeParent=1;resizeParentMax=0;resizeLast=0;collapsible=1;marginBottom=0;align=center;fontSize=14;" parent="1" vertex="1">
          <mxGeometry x="720" y="90" width="160" height="86" as="geometry">
            <mxRectangle x="720" y="90" width="180" height="26" as="alternateBounds" />
          </mxGeometry>
        </mxCell>
        <mxCell id="hSSG6MMnjUU0kWjoDqOR-6" value="Tên chức danh" style="text;strokeColor=none;fillColor=none;spacingLeft=4;spacingRight=4;overflow=hidden;rotatable=0;points=[[0,0.5],[1,0.5]];portConstraint=eastwest;fontSize=12;fontStyle=1" parent="hSSG6MMnjUU0kWjoDqOR-5" vertex="1">
          <mxGeometry y="26" width="160" height="30" as="geometry" />
        </mxCell>
        <mxCell id="hSSG6MMnjUU0kWjoDqOR-7" value="Mô tả" style="text;strokeColor=none;fillColor=none;spacingLeft=4;spacingRight=4;overflow=hidden;rotatable=0;points=[[0,0.5],[1,0.5]];portConstraint=eastwest;fontSize=12;" parent="hSSG6MMnjUU0kWjoDqOR-5" vertex="1">
          <mxGeometry y="56" width="160" height="30" as="geometry" />
        </mxCell>
        <mxCell id="hSSG6MMnjUU0kWjoDqOR-12" value="Mẫu hợp đồng" style="swimlane;fontStyle=0;childLayout=stackLayout;horizontal=1;startSize=26;horizontalStack=0;resizeParent=1;resizeParentMax=0;resizeLast=0;collapsible=1;marginBottom=0;align=center;fontSize=14;" parent="1" vertex="1">
          <mxGeometry x="730" y="290" width="160" height="116" as="geometry">
            <mxRectangle x="730" y="290" width="130" height="26" as="alternateBounds" />
          </mxGeometry>
        </mxCell>
        <mxCell id="hSSG6MMnjUU0kWjoDqOR-13" value="Tên mẫu" style="text;strokeColor=none;fillColor=none;spacingLeft=4;spacingRight=4;overflow=hidden;rotatable=0;points=[[0,0.5],[1,0.5]];portConstraint=eastwest;fontSize=12;fontStyle=1" parent="hSSG6MMnjUU0kWjoDqOR-12" vertex="1">
          <mxGeometry y="26" width="160" height="30" as="geometry" />
        </mxCell>
        <mxCell id="hSSG6MMnjUU0kWjoDqOR-14" value="Loại hợp đồng" style="text;strokeColor=none;fillColor=none;spacingLeft=4;spacingRight=4;overflow=hidden;rotatable=0;points=[[0,0.5],[1,0.5]];portConstraint=eastwest;fontSize=12;" parent="hSSG6MMnjUU0kWjoDqOR-12" vertex="1">
          <mxGeometry y="56" width="160" height="30" as="geometry" />
        </mxCell>
        <mxCell id="hSSG6MMnjUU0kWjoDqOR-19" value="File đính kèm" style="text;strokeColor=none;fillColor=none;spacingLeft=4;spacingRight=4;overflow=hidden;rotatable=0;points=[[0,0.5],[1,0.5]];portConstraint=eastwest;fontSize=12;" parent="hSSG6MMnjUU0kWjoDqOR-12" vertex="1">
          <mxGeometry y="86" width="160" height="30" as="geometry" />
        </mxCell>
        <mxCell id="hSSG6MMnjUU0kWjoDqOR-50" style="edgeStyle=orthogonalEdgeStyle;rounded=0;orthogonalLoop=1;jettySize=auto;html=1;" parent="1" source="hSSG6MMnjUU0kWjoDqOR-20" target="hSSG6MMnjUU0kWjoDqOR-14" edge="1">
          <mxGeometry relative="1" as="geometry" />
        </mxCell>
        <mxCell id="hSSG6MMnjUU0kWjoDqOR-20" value="Loại hợp đồng: Thử việc, cộng tác viên, thực tập, chính thức" style="shape=note;whiteSpace=wrap;html=1;backgroundOutline=1;darkOpacity=0.05;size=16;" parent="1" vertex="1">
          <mxGeometry x="980" y="306" width="145" height="110" as="geometry" />
        </mxCell>
        <mxCell id="hSSG6MMnjUU0kWjoDqOR-21" value="Hợp đồng" style="swimlane;fontStyle=0;childLayout=stackLayout;horizontal=1;startSize=26;horizontalStack=0;resizeParent=1;resizeParentMax=0;resizeLast=0;collapsible=1;marginBottom=0;align=center;fontSize=14;" parent="1" vertex="1">
          <mxGeometry x="730" y="460" width="160" height="266" as="geometry">
            <mxRectangle x="730" y="460" width="140" height="26" as="alternateBounds" />
          </mxGeometry>
        </mxCell>
        <mxCell id="hSSG6MMnjUU0kWjoDqOR-22" value="Mã hợp đồng" style="text;strokeColor=none;fillColor=none;spacingLeft=4;spacingRight=4;overflow=hidden;rotatable=0;points=[[0,0.5],[1,0.5]];portConstraint=eastwest;fontSize=12;fontStyle=1" parent="hSSG6MMnjUU0kWjoDqOR-21" vertex="1">
          <mxGeometry y="26" width="160" height="30" as="geometry" />
        </mxCell>
        <mxCell id="hSSG6MMnjUU0kWjoDqOR-23" value="Loại hợp đồng" style="text;strokeColor=none;fillColor=none;spacingLeft=4;spacingRight=4;overflow=hidden;rotatable=0;points=[[0,0.5],[1,0.5]];portConstraint=eastwest;fontSize=12;fontStyle=1" parent="hSSG6MMnjUU0kWjoDqOR-21" vertex="1">
          <mxGeometry y="56" width="160" height="30" as="geometry" />
        </mxCell>
        <mxCell id="hSSG6MMnjUU0kWjoDqOR-24" value="Nhân sự" style="text;strokeColor=none;fillColor=none;spacingLeft=4;spacingRight=4;overflow=hidden;rotatable=0;points=[[0,0.5],[1,0.5]];portConstraint=eastwest;fontSize=12;" parent="hSSG6MMnjUU0kWjoDqOR-21" vertex="1">
          <mxGeometry y="86" width="160" height="30" as="geometry" />
        </mxCell>
        <mxCell id="hSSG6MMnjUU0kWjoDqOR-25" value="File đính kèm (hợp đồng)" style="text;strokeColor=none;fillColor=none;spacingLeft=4;spacingRight=4;overflow=hidden;rotatable=0;points=[[0,0.5],[1,0.5]];portConstraint=eastwest;fontSize=12;" parent="hSSG6MMnjUU0kWjoDqOR-21" vertex="1">
          <mxGeometry y="116" width="160" height="30" as="geometry" />
        </mxCell>
        <mxCell id="hSSG6MMnjUU0kWjoDqOR-26" value="Từ ngày" style="text;strokeColor=none;fillColor=none;spacingLeft=4;spacingRight=4;overflow=hidden;rotatable=0;points=[[0,0.5],[1,0.5]];portConstraint=eastwest;fontSize=12;" parent="hSSG6MMnjUU0kWjoDqOR-21" vertex="1">
          <mxGeometry y="146" width="160" height="30" as="geometry" />
        </mxCell>
        <mxCell id="hSSG6MMnjUU0kWjoDqOR-27" value="Đến ngày" style="text;strokeColor=none;fillColor=none;spacingLeft=4;spacingRight=4;overflow=hidden;rotatable=0;points=[[0,0.5],[1,0.5]];portConstraint=eastwest;fontSize=12;" parent="hSSG6MMnjUU0kWjoDqOR-21" vertex="1">
          <mxGeometry y="176" width="160" height="30" as="geometry" />
        </mxCell>
        <mxCell id="hSSG6MMnjUU0kWjoDqOR-28" value="Ngày ký" style="text;strokeColor=none;fillColor=none;spacingLeft=4;spacingRight=4;overflow=hidden;rotatable=0;points=[[0,0.5],[1,0.5]];portConstraint=eastwest;fontSize=12;" parent="hSSG6MMnjUU0kWjoDqOR-21" vertex="1">
          <mxGeometry y="206" width="160" height="30" as="geometry" />
        </mxCell>
        <mxCell id="hSSG6MMnjUU0kWjoDqOR-29" value="Người ký (HR)" style="text;strokeColor=none;fillColor=none;spacingLeft=4;spacingRight=4;overflow=hidden;rotatable=0;points=[[0,0.5],[1,0.5]];portConstraint=eastwest;fontSize=12;" parent="hSSG6MMnjUU0kWjoDqOR-21" vertex="1">
          <mxGeometry y="236" width="160" height="30" as="geometry" />
        </mxCell>
        <mxCell id="hSSG6MMnjUU0kWjoDqOR-30" value="Nhân sự" style="swimlane;fontStyle=0;childLayout=stackLayout;horizontal=1;startSize=26;horizontalStack=0;resizeParent=1;resizeParentMax=0;resizeLast=0;collapsible=1;marginBottom=0;align=center;fontSize=14;" parent="1" vertex="1">
          <mxGeometry x="425" y="280" width="160" height="386" as="geometry">
            <mxRectangle x="425" y="280" width="50" height="26" as="alternateBounds" />
          </mxGeometry>
        </mxCell>
        <mxCell id="hSSG6MMnjUU0kWjoDqOR-31" value="Mã nhân sự" style="text;strokeColor=none;fillColor=none;spacingLeft=4;spacingRight=4;overflow=hidden;rotatable=0;points=[[0,0.5],[1,0.5]];portConstraint=eastwest;fontSize=12;fontStyle=1" parent="hSSG6MMnjUU0kWjoDqOR-30" vertex="1">
          <mxGeometry y="26" width="160" height="30" as="geometry" />
        </mxCell>
        <mxCell id="hSSG6MMnjUU0kWjoDqOR-32" value="Tên nhân sự" style="text;strokeColor=none;fillColor=none;spacingLeft=4;spacingRight=4;overflow=hidden;rotatable=0;points=[[0,0.5],[1,0.5]];portConstraint=eastwest;fontSize=12;fontStyle=1" parent="hSSG6MMnjUU0kWjoDqOR-30" vertex="1">
          <mxGeometry y="56" width="160" height="30" as="geometry" />
        </mxCell>
        <mxCell id="hSSG6MMnjUU0kWjoDqOR-40" value="Đơn vị - Chức danh" style="text;strokeColor=none;fillColor=none;spacingLeft=4;spacingRight=4;overflow=hidden;rotatable=0;points=[[0,0.5],[1,0.5]];portConstraint=eastwest;fontSize=12;fontStyle=1" parent="hSSG6MMnjUU0kWjoDqOR-30" vertex="1">
          <mxGeometry y="86" width="160" height="30" as="geometry" />
        </mxCell>
        <mxCell id="hSSG6MMnjUU0kWjoDqOR-33" value="Email" style="text;strokeColor=none;fillColor=none;spacingLeft=4;spacingRight=4;overflow=hidden;rotatable=0;points=[[0,0.5],[1,0.5]];portConstraint=eastwest;fontSize=12;" parent="hSSG6MMnjUU0kWjoDqOR-30" vertex="1">
          <mxGeometry y="116" width="160" height="30" as="geometry" />
        </mxCell>
        <mxCell id="hSSG6MMnjUU0kWjoDqOR-34" value="Mã chấm công" style="text;strokeColor=none;fillColor=none;spacingLeft=4;spacingRight=4;overflow=hidden;rotatable=0;points=[[0,0.5],[1,0.5]];portConstraint=eastwest;fontSize=12;" parent="hSSG6MMnjUU0kWjoDqOR-30" vertex="1">
          <mxGeometry y="146" width="160" height="30" as="geometry" />
        </mxCell>
        <mxCell id="hSSG6MMnjUU0kWjoDqOR-35" value="Hình thức làm việc" style="text;strokeColor=none;fillColor=none;spacingLeft=4;spacingRight=4;overflow=hidden;rotatable=0;points=[[0,0.5],[1,0.5]];portConstraint=eastwest;fontSize=12;" parent="hSSG6MMnjUU0kWjoDqOR-30" vertex="1">
          <mxGeometry y="176" width="160" height="30" as="geometry" />
        </mxCell>
        <mxCell id="hSSG6MMnjUU0kWjoDqOR-36" value="Ngày bắt đầu" style="text;strokeColor=none;fillColor=none;spacingLeft=4;spacingRight=4;overflow=hidden;rotatable=0;points=[[0,0.5],[1,0.5]];portConstraint=eastwest;fontSize=12;" parent="hSSG6MMnjUU0kWjoDqOR-30" vertex="1">
          <mxGeometry y="206" width="160" height="30" as="geometry" />
        </mxCell>
        <mxCell id="hSSG6MMnjUU0kWjoDqOR-37" value="Ngày bắt đầu thử việc" style="text;strokeColor=none;fillColor=none;spacingLeft=4;spacingRight=4;overflow=hidden;rotatable=0;points=[[0,0.5],[1,0.5]];portConstraint=eastwest;fontSize=12;" parent="hSSG6MMnjUU0kWjoDqOR-30" vertex="1">
          <mxGeometry y="236" width="160" height="30" as="geometry" />
        </mxCell>
        <mxCell id="hSSG6MMnjUU0kWjoDqOR-38" value="Ngày chính thức" style="text;strokeColor=none;fillColor=none;spacingLeft=4;spacingRight=4;overflow=hidden;rotatable=0;points=[[0,0.5],[1,0.5]];portConstraint=eastwest;fontSize=12;" parent="hSSG6MMnjUU0kWjoDqOR-30" vertex="1">
          <mxGeometry y="266" width="160" height="30" as="geometry" />
        </mxCell>
        <mxCell id="hSSG6MMnjUU0kWjoDqOR-39" value="Trạng thái" style="text;strokeColor=none;fillColor=none;spacingLeft=4;spacingRight=4;overflow=hidden;rotatable=0;points=[[0,0.5],[1,0.5]];portConstraint=eastwest;fontSize=12;" parent="hSSG6MMnjUU0kWjoDqOR-30" vertex="1">
          <mxGeometry y="296" width="160" height="30" as="geometry" />
        </mxCell>
        <mxCell id="hSSG6MMnjUU0kWjoDqOR-41" value="Thông tin cá nhân" style="text;strokeColor=none;fillColor=none;spacingLeft=4;spacingRight=4;overflow=hidden;rotatable=0;points=[[0,0.5],[1,0.5]];portConstraint=eastwest;fontSize=12;" parent="hSSG6MMnjUU0kWjoDqOR-30" vertex="1">
          <mxGeometry y="326" width="160" height="30" as="geometry" />
        </mxCell>
        <mxCell id="hSSG6MMnjUU0kWjoDqOR-43" value="Hồ sơ cá nhân" style="text;strokeColor=none;fillColor=none;spacingLeft=4;spacingRight=4;overflow=hidden;rotatable=0;points=[[0,0.5],[1,0.5]];portConstraint=eastwest;fontSize=12;" parent="hSSG6MMnjUU0kWjoDqOR-30" vertex="1">
          <mxGeometry y="356" width="160" height="30" as="geometry" />
        </mxCell>
        <mxCell id="hSSG6MMnjUU0kWjoDqOR-44" style="edgeStyle=orthogonalEdgeStyle;rounded=0;orthogonalLoop=1;jettySize=auto;html=1;entryX=0;entryY=0.5;entryDx=0;entryDy=0;" parent="1" source="hSSG6MMnjUU0kWjoDqOR-42" target="hSSG6MMnjUU0kWjoDqOR-34" edge="1">
          <mxGeometry relative="1" as="geometry" />
        </mxCell>
        <mxCell id="hSSG6MMnjUU0kWjoDqOR-42" value="&lt;b&gt;Thông tin cá nhân&lt;br&gt;&lt;/b&gt;&lt;br&gt;Ngày sinh&lt;br&gt;Giới tính&lt;br&gt;SĐT&lt;br&gt;Mã số thuế&lt;br&gt;Địa chỉ thường trú&lt;br&gt;Nơi ở hiện tại&lt;br&gt;Số CMND/CCCD/Hộ chiếu&lt;br&gt;Trình độ học vấn&lt;br&gt;Email cá nhân&lt;br&gt;Tài khoản ngân hàng" style="shape=note;whiteSpace=wrap;html=1;backgroundOutline=1;darkOpacity=0.05;size=14;" parent="1" vertex="1">
          <mxGeometry x="80" y="320" width="260" height="196" as="geometry" />
        </mxCell>
        <mxCell id="hSSG6MMnjUU0kWjoDqOR-46" style="edgeStyle=orthogonalEdgeStyle;rounded=0;orthogonalLoop=1;jettySize=auto;html=1;" parent="1" source="hSSG6MMnjUU0kWjoDqOR-45" target="hSSG6MMnjUU0kWjoDqOR-39" edge="1">
          <mxGeometry relative="1" as="geometry" />
        </mxCell>
        <mxCell id="hSSG6MMnjUU0kWjoDqOR-45" value="&lt;b&gt;Hồ sơ cá nhân&lt;br&gt;&lt;/b&gt;&lt;br&gt;Sơ yếu lý lịch&lt;br&gt;Bản sao CMND/CCCD/Hộ chiếu&lt;br&gt;Giấy khám sức khỏe&lt;br&gt;Bản sao giấy khai sinh&lt;br&gt;Bản sao sổ hộ khẩu&lt;br&gt;Bằng cấp&lt;br&gt;Sổ bảo hiểm" style="shape=note;whiteSpace=wrap;html=1;backgroundOutline=1;darkOpacity=0.05;size=9;" parent="1" vertex="1">
          <mxGeometry x="80" y="531" width="260" height="159" as="geometry" />
        </mxCell>
        <mxCell id="hSSG6MMnjUU0kWjoDqOR-48" value="" style="edgeStyle=entityRelationEdgeStyle;fontSize=12;html=1;endArrow=ERmany;startArrow=ERmany;exitX=0;exitY=0.5;exitDx=0;exitDy=0;entryX=1;entryY=0.5;entryDx=0;entryDy=0;" parent="1" source="hSSG6MMnjUU0kWjoDqOR-32" target="hSSG6MMnjUU0kWjoDqOR-10" edge="1">
          <mxGeometry width="100" height="100" relative="1" as="geometry">
            <mxPoint x="585" y="360" as="sourcePoint" />
            <mxPoint x="685" y="260" as="targetPoint" />
          </mxGeometry>
        </mxCell>
        <mxCell id="hSSG6MMnjUU0kWjoDqOR-49" value="" style="edgeStyle=entityRelationEdgeStyle;fontSize=12;html=1;endArrow=ERmany;startArrow=ERmany;exitX=1;exitY=0.5;exitDx=0;exitDy=0;entryX=0;entryY=0.5;entryDx=0;entryDy=0;" parent="1" source="hSSG6MMnjUU0kWjoDqOR-31" target="hSSG6MMnjUU0kWjoDqOR-7" edge="1">
          <mxGeometry width="100" height="100" relative="1" as="geometry">
            <mxPoint x="675" y="300" as="sourcePoint" />
            <mxPoint x="620" y="170" as="targetPoint" />
          </mxGeometry>
        </mxCell>
        <mxCell id="hSSG6MMnjUU0kWjoDqOR-51" style="edgeStyle=orthogonalEdgeStyle;rounded=0;orthogonalLoop=1;jettySize=auto;html=1;exitX=0;exitY=0.5;exitDx=0;exitDy=0;entryX=1;entryY=0.5;entryDx=0;entryDy=0;" parent="1" source="hSSG6MMnjUU0kWjoDqOR-24" target="hSSG6MMnjUU0kWjoDqOR-38" edge="1">
          <mxGeometry relative="1" as="geometry" />
        </mxCell>
        <mxCell id="hSSG6MMnjUU0kWjoDqOR-52" value="Hình thức làm việc" style="swimlane;fontStyle=0;childLayout=stackLayout;horizontal=1;startSize=26;horizontalStack=0;resizeParent=1;resizeParentMax=0;resizeLast=0;collapsible=1;marginBottom=0;align=center;fontSize=14;" parent="1" vertex="1">
          <mxGeometry x="425" y="740" width="160" height="86" as="geometry">
            <mxRectangle x="50" y="60" width="50" height="26" as="alternateBounds" />
          </mxGeometry>
        </mxCell>
        <mxCell id="hSSG6MMnjUU0kWjoDqOR-53" value="Hình thức làm việc" style="text;strokeColor=none;fillColor=none;spacingLeft=4;spacingRight=4;overflow=hidden;rotatable=0;points=[[0,0.5],[1,0.5]];portConstraint=eastwest;fontSize=12;fontStyle=1" parent="hSSG6MMnjUU0kWjoDqOR-52" vertex="1">
          <mxGeometry y="26" width="160" height="30" as="geometry" />
        </mxCell>
        <mxCell id="hSSG6MMnjUU0kWjoDqOR-54" value="Mô tả" style="text;strokeColor=none;fillColor=none;spacingLeft=4;spacingRight=4;overflow=hidden;rotatable=0;points=[[0,0.5],[1,0.5]];portConstraint=eastwest;fontSize=12;fontStyle=0" parent="hSSG6MMnjUU0kWjoDqOR-52" vertex="1">
          <mxGeometry y="56" width="160" height="30" as="geometry" />
        </mxCell>
        <mxCell id="hSSG6MMnjUU0kWjoDqOR-67" value="" style="edgeStyle=entityRelationEdgeStyle;fontSize=12;html=1;endArrow=ERmandOne;startArrow=ERmandOne;entryX=1;entryY=0.5;entryDx=0;entryDy=0;exitX=1;exitY=0.5;exitDx=0;exitDy=0;" parent="1" source="hSSG6MMnjUU0kWjoDqOR-53" target="hSSG6MMnjUU0kWjoDqOR-43" edge="1">
          <mxGeometry width="100" height="100" relative="1" as="geometry">
            <mxPoint x="520" y="600" as="sourcePoint" />
            <mxPoint x="620" y="500" as="targetPoint" />
          </mxGeometry>
        </mxCell>
        <mxCell id="hSSG6MMnjUU0kWjoDqOR-68" value="1-1" style="text;html=1;align=center;verticalAlign=middle;resizable=0;points=[];autosize=1;strokeColor=none;" parent="1" vertex="1">
          <mxGeometry x="615" y="710" width="30" height="20" as="geometry" />
        </mxCell>
        <mxCell id="hSSG6MMnjUU0kWjoDqOR-69" value="m-n" style="text;html=1;align=center;verticalAlign=middle;resizable=0;points=[];autosize=1;strokeColor=none;" parent="1" vertex="1">
          <mxGeometry x="350" y="260" width="40" height="20" as="geometry" />
        </mxCell>
        <mxCell id="hSSG6MMnjUU0kWjoDqOR-70" value="m-n" style="text;html=1;align=center;verticalAlign=middle;resizable=0;points=[];autosize=1;strokeColor=none;" parent="1" vertex="1">
          <mxGeometry x="670" y="220" width="40" height="20" as="geometry" />
        </mxCell>
        <mxCell id="hSSG6MMnjUU0kWjoDqOR-71" value="Recursive 0-n" style="text;html=1;align=center;verticalAlign=middle;resizable=0;points=[];autosize=1;strokeColor=none;" parent="1" vertex="1">
          <mxGeometry x="390" y="123" width="90" height="20" as="geometry" />
        </mxCell>
        <mxCell id="t0jusX5-IYJ_9TBrGAH8-1" value="Nhân sự" style="swimlane;fontStyle=0;childLayout=stackLayout;horizontal=1;startSize=26;horizontalStack=0;resizeParent=1;resizeParentMax=0;resizeLast=0;collapsible=1;marginBottom=0;align=center;fontSize=14;" vertex="1" collapsed="1" parent="1">
          <mxGeometry x="1270" y="115" width="170" height="26" as="geometry">
            <mxRectangle x="1450" y="280" width="160" height="386" as="alternateBounds" />
          </mxGeometry>
        </mxCell>
        <mxCell id="t0jusX5-IYJ_9TBrGAH8-2" value="Mã nhân sự" style="text;strokeColor=none;fillColor=none;spacingLeft=4;spacingRight=4;overflow=hidden;rotatable=0;points=[[0,0.5],[1,0.5]];portConstraint=eastwest;fontSize=12;fontStyle=1" vertex="1" parent="t0jusX5-IYJ_9TBrGAH8-1">
          <mxGeometry y="26" width="170" height="30" as="geometry" />
        </mxCell>
        <mxCell id="t0jusX5-IYJ_9TBrGAH8-3" value="Tên nhân sự" style="text;strokeColor=none;fillColor=none;spacingLeft=4;spacingRight=4;overflow=hidden;rotatable=0;points=[[0,0.5],[1,0.5]];portConstraint=eastwest;fontSize=12;fontStyle=1" vertex="1" parent="t0jusX5-IYJ_9TBrGAH8-1">
          <mxGeometry y="56" width="170" height="30" as="geometry" />
        </mxCell>
        <mxCell id="t0jusX5-IYJ_9TBrGAH8-4" value="Đơn vị - Chức danh" style="text;strokeColor=none;fillColor=none;spacingLeft=4;spacingRight=4;overflow=hidden;rotatable=0;points=[[0,0.5],[1,0.5]];portConstraint=eastwest;fontSize=12;fontStyle=1" vertex="1" parent="t0jusX5-IYJ_9TBrGAH8-1">
          <mxGeometry y="86" width="170" height="30" as="geometry" />
        </mxCell>
        <mxCell id="t0jusX5-IYJ_9TBrGAH8-5" value="Email" style="text;strokeColor=none;fillColor=none;spacingLeft=4;spacingRight=4;overflow=hidden;rotatable=0;points=[[0,0.5],[1,0.5]];portConstraint=eastwest;fontSize=12;" vertex="1" parent="t0jusX5-IYJ_9TBrGAH8-1">
          <mxGeometry y="116" width="170" height="30" as="geometry" />
        </mxCell>
        <mxCell id="t0jusX5-IYJ_9TBrGAH8-6" value="Mã chấm công" style="text;strokeColor=none;fillColor=none;spacingLeft=4;spacingRight=4;overflow=hidden;rotatable=0;points=[[0,0.5],[1,0.5]];portConstraint=eastwest;fontSize=12;" vertex="1" parent="t0jusX5-IYJ_9TBrGAH8-1">
          <mxGeometry y="146" width="170" height="30" as="geometry" />
        </mxCell>
        <mxCell id="t0jusX5-IYJ_9TBrGAH8-7" value="Hình thức làm việc" style="text;strokeColor=none;fillColor=none;spacingLeft=4;spacingRight=4;overflow=hidden;rotatable=0;points=[[0,0.5],[1,0.5]];portConstraint=eastwest;fontSize=12;" vertex="1" parent="t0jusX5-IYJ_9TBrGAH8-1">
          <mxGeometry y="176" width="170" height="30" as="geometry" />
        </mxCell>
        <mxCell id="t0jusX5-IYJ_9TBrGAH8-8" value="Ngày bắt đầu" style="text;strokeColor=none;fillColor=none;spacingLeft=4;spacingRight=4;overflow=hidden;rotatable=0;points=[[0,0.5],[1,0.5]];portConstraint=eastwest;fontSize=12;" vertex="1" parent="t0jusX5-IYJ_9TBrGAH8-1">
          <mxGeometry y="206" width="170" height="30" as="geometry" />
        </mxCell>
        <mxCell id="t0jusX5-IYJ_9TBrGAH8-9" value="Ngày bắt đầu thử việc" style="text;strokeColor=none;fillColor=none;spacingLeft=4;spacingRight=4;overflow=hidden;rotatable=0;points=[[0,0.5],[1,0.5]];portConstraint=eastwest;fontSize=12;" vertex="1" parent="t0jusX5-IYJ_9TBrGAH8-1">
          <mxGeometry y="236" width="170" height="30" as="geometry" />
        </mxCell>
        <mxCell id="t0jusX5-IYJ_9TBrGAH8-10" value="Ngày chính thức" style="text;strokeColor=none;fillColor=none;spacingLeft=4;spacingRight=4;overflow=hidden;rotatable=0;points=[[0,0.5],[1,0.5]];portConstraint=eastwest;fontSize=12;" vertex="1" parent="t0jusX5-IYJ_9TBrGAH8-1">
          <mxGeometry y="266" width="170" height="30" as="geometry" />
        </mxCell>
        <mxCell id="t0jusX5-IYJ_9TBrGAH8-11" value="Trạng thái" style="text;strokeColor=none;fillColor=none;spacingLeft=4;spacingRight=4;overflow=hidden;rotatable=0;points=[[0,0.5],[1,0.5]];portConstraint=eastwest;fontSize=12;" vertex="1" parent="t0jusX5-IYJ_9TBrGAH8-1">
          <mxGeometry y="296" width="170" height="30" as="geometry" />
        </mxCell>
        <mxCell id="t0jusX5-IYJ_9TBrGAH8-12" value="Thông tin cá nhân" style="text;strokeColor=none;fillColor=none;spacingLeft=4;spacingRight=4;overflow=hidden;rotatable=0;points=[[0,0.5],[1,0.5]];portConstraint=eastwest;fontSize=12;" vertex="1" parent="t0jusX5-IYJ_9TBrGAH8-1">
          <mxGeometry y="326" width="170" height="30" as="geometry" />
        </mxCell>
        <mxCell id="t0jusX5-IYJ_9TBrGAH8-13" value="Hồ sơ cá nhân" style="text;strokeColor=none;fillColor=none;spacingLeft=4;spacingRight=4;overflow=hidden;rotatable=0;points=[[0,0.5],[1,0.5]];portConstraint=eastwest;fontSize=12;" vertex="1" parent="t0jusX5-IYJ_9TBrGAH8-1">
          <mxGeometry y="356" width="170" height="30" as="geometry" />
        </mxCell>
        <mxCell id="t0jusX5-IYJ_9TBrGAH8-14" value="Người dùng" style="swimlane;fontStyle=0;childLayout=stackLayout;horizontal=1;startSize=26;horizontalStack=0;resizeParent=1;resizeParentMax=0;resizeLast=0;collapsible=1;marginBottom=0;align=center;fontSize=14;" vertex="1" parent="1">
          <mxGeometry x="1520" y="69" width="160" height="176" as="geometry">
            <mxRectangle x="730" y="290" width="130" height="26" as="alternateBounds" />
          </mxGeometry>
        </mxCell>
        <mxCell id="t0jusX5-IYJ_9TBrGAH8-15" value="Email đăng nhập" style="text;strokeColor=none;fillColor=none;spacingLeft=4;spacingRight=4;overflow=hidden;rotatable=0;points=[[0,0.5],[1,0.5]];portConstraint=eastwest;fontSize=12;fontStyle=1" vertex="1" parent="t0jusX5-IYJ_9TBrGAH8-14">
          <mxGeometry y="26" width="160" height="30" as="geometry" />
        </mxCell>
        <mxCell id="t0jusX5-IYJ_9TBrGAH8-16" value="Mật khẩu" style="text;strokeColor=none;fillColor=none;spacingLeft=4;spacingRight=4;overflow=hidden;rotatable=0;points=[[0,0.5],[1,0.5]];portConstraint=eastwest;fontSize=12;" vertex="1" parent="t0jusX5-IYJ_9TBrGAH8-14">
          <mxGeometry y="56" width="160" height="30" as="geometry" />
        </mxCell>
        <mxCell id="t0jusX5-IYJ_9TBrGAH8-17" value="Tên nhân sự" style="text;strokeColor=none;fillColor=none;spacingLeft=4;spacingRight=4;overflow=hidden;rotatable=0;points=[[0,0.5],[1,0.5]];portConstraint=eastwest;fontSize=12;fontStyle=1" vertex="1" parent="t0jusX5-IYJ_9TBrGAH8-14">
          <mxGeometry y="86" width="160" height="30" as="geometry" />
        </mxCell>
        <mxCell id="t0jusX5-IYJ_9TBrGAH8-18" value="Trạng thái" style="text;strokeColor=none;fillColor=none;spacingLeft=4;spacingRight=4;overflow=hidden;rotatable=0;points=[[0,0.5],[1,0.5]];portConstraint=eastwest;fontSize=12;" vertex="1" parent="t0jusX5-IYJ_9TBrGAH8-14">
          <mxGeometry y="116" width="160" height="30" as="geometry" />
        </mxCell>
        <mxCell id="t0jusX5-IYJ_9TBrGAH8-29" value="Vai trò" style="text;strokeColor=none;fillColor=none;spacingLeft=4;spacingRight=4;overflow=hidden;rotatable=0;points=[[0,0.5],[1,0.5]];portConstraint=eastwest;fontSize=12;" vertex="1" parent="t0jusX5-IYJ_9TBrGAH8-14">
          <mxGeometry y="146" width="160" height="30" as="geometry" />
        </mxCell>
        <mxCell id="t0jusX5-IYJ_9TBrGAH8-20" style="edgeStyle=orthogonalEdgeStyle;rounded=0;orthogonalLoop=1;jettySize=auto;html=1;entryX=1;entryY=0.5;entryDx=0;entryDy=0;" edge="1" parent="1" source="t0jusX5-IYJ_9TBrGAH8-19" target="t0jusX5-IYJ_9TBrGAH8-16">
          <mxGeometry relative="1" as="geometry" />
        </mxCell>
        <mxCell id="t0jusX5-IYJ_9TBrGAH8-19" value="&lt;b&gt;Trạng thái&lt;br&gt;&lt;/b&gt;&lt;br&gt;Đang hoạt động&lt;br&gt;Ngừng hoạt động&lt;br&gt;Chờ xác nhận" style="shape=note;whiteSpace=wrap;html=1;backgroundOutline=1;darkOpacity=0.05;size=11;" vertex="1" parent="1">
          <mxGeometry x="1800" y="60" width="130" height="160" as="geometry" />
        </mxCell>
        <mxCell id="t0jusX5-IYJ_9TBrGAH8-21" value="" style="edgeStyle=entityRelationEdgeStyle;fontSize=12;html=1;endArrow=ERmandOne;startArrow=ERmandOne;entryX=1;entryY=1;entryDx=0;entryDy=0;exitX=0;exitY=0.5;exitDx=0;exitDy=0;" edge="1" parent="1" source="t0jusX5-IYJ_9TBrGAH8-15" target="t0jusX5-IYJ_9TBrGAH8-1">
          <mxGeometry width="100" height="100" relative="1" as="geometry">
            <mxPoint x="1660" y="189" as="sourcePoint" />
            <mxPoint x="1760" y="89" as="targetPoint" />
          </mxGeometry>
        </mxCell>
        <mxCell id="t0jusX5-IYJ_9TBrGAH8-22" value="Phân quyền" style="swimlane;fontStyle=0;childLayout=stackLayout;horizontal=1;startSize=26;horizontalStack=0;resizeParent=1;resizeParentMax=0;resizeLast=0;collapsible=1;marginBottom=0;align=center;fontSize=14;" vertex="1" parent="1">
          <mxGeometry x="1520" y="319" width="160" height="116" as="geometry">
            <mxRectangle x="730" y="290" width="130" height="26" as="alternateBounds" />
          </mxGeometry>
        </mxCell>
        <mxCell id="t0jusX5-IYJ_9TBrGAH8-23" value="Tên vai trò" style="text;strokeColor=none;fillColor=none;spacingLeft=4;spacingRight=4;overflow=hidden;rotatable=0;points=[[0,0.5],[1,0.5]];portConstraint=eastwest;fontSize=12;fontStyle=1" vertex="1" parent="t0jusX5-IYJ_9TBrGAH8-22">
          <mxGeometry y="26" width="160" height="30" as="geometry" />
        </mxCell>
        <mxCell id="t0jusX5-IYJ_9TBrGAH8-24" value="Mô tả" style="text;strokeColor=none;fillColor=none;spacingLeft=4;spacingRight=4;overflow=hidden;rotatable=0;points=[[0,0.5],[1,0.5]];portConstraint=eastwest;fontSize=12;" vertex="1" parent="t0jusX5-IYJ_9TBrGAH8-22">
          <mxGeometry y="56" width="160" height="30" as="geometry" />
        </mxCell>
        <mxCell id="t0jusX5-IYJ_9TBrGAH8-25" value="Danh sách phân quyền" style="text;strokeColor=none;fillColor=none;spacingLeft=4;spacingRight=4;overflow=hidden;rotatable=0;points=[[0,0.5],[1,0.5]];portConstraint=eastwest;fontSize=12;fontStyle=1" vertex="1" parent="t0jusX5-IYJ_9TBrGAH8-22">
          <mxGeometry y="86" width="160" height="30" as="geometry" />
        </mxCell>
        <mxCell id="t0jusX5-IYJ_9TBrGAH8-31" style="edgeStyle=orthogonalEdgeStyle;rounded=0;orthogonalLoop=1;jettySize=auto;html=1;entryX=1;entryY=0.5;entryDx=0;entryDy=0;" edge="1" parent="1" source="t0jusX5-IYJ_9TBrGAH8-27" target="t0jusX5-IYJ_9TBrGAH8-25">
          <mxGeometry relative="1" as="geometry" />
        </mxCell>
        <mxCell id="t0jusX5-IYJ_9TBrGAH8-27" value="Bao gồm các MiniApp và các chức năng&amp;nbsp;" style="shape=note;whiteSpace=wrap;html=1;backgroundOutline=1;darkOpacity=0.05;size=14;" vertex="1" parent="1">
          <mxGeometry x="1800" y="360" width="130" height="120" as="geometry" />
        </mxCell>
        <mxCell id="t0jusX5-IYJ_9TBrGAH8-30" value="" style="edgeStyle=entityRelationEdgeStyle;fontSize=12;html=1;endArrow=ERmandOne;startArrow=ERmandOne;entryX=1;entryY=0.5;entryDx=0;entryDy=0;exitX=1;exitY=0.5;exitDx=0;exitDy=0;" edge="1" parent="1" source="t0jusX5-IYJ_9TBrGAH8-24" target="t0jusX5-IYJ_9TBrGAH8-29">
          <mxGeometry width="100" height="100" relative="1" as="geometry">
            <mxPoint x="1470" y="399" as="sourcePoint" />
            <mxPoint x="1410" y="220" as="targetPoint" />
          </mxGeometry>
        </mxCell>
        <mxCell id="t0jusX5-IYJ_9TBrGAH8-32" value="1-1" style="text;html=1;align=center;verticalAlign=middle;resizable=0;points=[];autosize=1;strokeColor=none;" vertex="1" parent="1">
          <mxGeometry x="1710" y="279" width="30" height="20" as="geometry" />
        </mxCell>
        <mxCell id="t0jusX5-IYJ_9TBrGAH8-33" value="1-1" style="text;html=1;align=center;verticalAlign=middle;resizable=0;points=[];autosize=1;strokeColor=none;" vertex="1" parent="1">
          <mxGeometry x="1460" y="95" width="30" height="20" as="geometry" />
        </mxCell>
        <mxCell id="t0jusX5-IYJ_9TBrGAH8-65" value="Ca làm việc" style="swimlane;fontStyle=0;childLayout=stackLayout;horizontal=1;startSize=26;horizontalStack=0;resizeParent=1;resizeParentMax=0;resizeLast=0;collapsible=1;marginBottom=0;align=center;fontSize=14;" vertex="1" parent="1">
          <mxGeometry x="3030" y="279" width="160" height="236" as="geometry">
            <mxRectangle x="730" y="290" width="130" height="26" as="alternateBounds" />
          </mxGeometry>
        </mxCell>
        <mxCell id="t0jusX5-IYJ_9TBrGAH8-66" value="Mã ca" style="text;strokeColor=none;fillColor=none;spacingLeft=4;spacingRight=4;overflow=hidden;rotatable=0;points=[[0,0.5],[1,0.5]];portConstraint=eastwest;fontSize=12;fontStyle=1" vertex="1" parent="t0jusX5-IYJ_9TBrGAH8-65">
          <mxGeometry y="26" width="160" height="30" as="geometry" />
        </mxCell>
        <mxCell id="t0jusX5-IYJ_9TBrGAH8-88" value="Tên ca" style="text;strokeColor=none;fillColor=none;spacingLeft=4;spacingRight=4;overflow=hidden;rotatable=0;points=[[0,0.5],[1,0.5]];portConstraint=eastwest;fontSize=12;fontStyle=0" vertex="1" parent="t0jusX5-IYJ_9TBrGAH8-65">
          <mxGeometry y="56" width="160" height="30" as="geometry" />
        </mxCell>
        <mxCell id="t0jusX5-IYJ_9TBrGAH8-89" value="Thời gian làm việc" style="text;strokeColor=none;fillColor=none;spacingLeft=4;spacingRight=4;overflow=hidden;rotatable=0;points=[[0,0.5],[1,0.5]];portConstraint=eastwest;fontSize=12;fontStyle=0" vertex="1" parent="t0jusX5-IYJ_9TBrGAH8-65">
          <mxGeometry y="86" width="160" height="30" as="geometry" />
        </mxCell>
        <mxCell id="t0jusX5-IYJ_9TBrGAH8-90" value="Thời gian nghỉ giữa ca" style="text;strokeColor=none;fillColor=none;spacingLeft=4;spacingRight=4;overflow=hidden;rotatable=0;points=[[0,0.5],[1,0.5]];portConstraint=eastwest;fontSize=12;fontStyle=0" vertex="1" parent="t0jusX5-IYJ_9TBrGAH8-65">
          <mxGeometry y="116" width="160" height="30" as="geometry" />
        </mxCell>
        <mxCell id="t0jusX5-IYJ_9TBrGAH8-91" value="Số giờ làm việc" style="text;strokeColor=none;fillColor=none;spacingLeft=4;spacingRight=4;overflow=hidden;rotatable=0;points=[[0,0.5],[1,0.5]];portConstraint=eastwest;fontSize=12;fontStyle=0" vertex="1" parent="t0jusX5-IYJ_9TBrGAH8-65">
          <mxGeometry y="146" width="160" height="30" as="geometry" />
        </mxCell>
        <mxCell id="t0jusX5-IYJ_9TBrGAH8-92" value="Số công" style="text;strokeColor=none;fillColor=none;spacingLeft=4;spacingRight=4;overflow=hidden;rotatable=0;points=[[0,0.5],[1,0.5]];portConstraint=eastwest;fontSize=12;fontStyle=0" vertex="1" parent="t0jusX5-IYJ_9TBrGAH8-65">
          <mxGeometry y="176" width="160" height="30" as="geometry" />
        </mxCell>
        <mxCell id="t0jusX5-IYJ_9TBrGAH8-93" value="Thời gian chấm công" style="text;strokeColor=none;fillColor=none;spacingLeft=4;spacingRight=4;overflow=hidden;rotatable=0;points=[[0,0.5],[1,0.5]];portConstraint=eastwest;fontSize=12;fontStyle=0" vertex="1" parent="t0jusX5-IYJ_9TBrGAH8-65">
          <mxGeometry y="206" width="160" height="30" as="geometry" />
        </mxCell>
        <mxCell id="t0jusX5-IYJ_9TBrGAH8-71" value="Phân ca làm việc" style="swimlane;fontStyle=0;childLayout=stackLayout;horizontal=1;startSize=26;horizontalStack=0;resizeParent=1;resizeParentMax=0;resizeLast=0;collapsible=1;marginBottom=0;align=center;fontSize=14;" vertex="1" parent="1">
          <mxGeometry x="2770" y="69" width="160" height="206" as="geometry">
            <mxRectangle x="730" y="290" width="130" height="26" as="alternateBounds" />
          </mxGeometry>
        </mxCell>
        <mxCell id="t0jusX5-IYJ_9TBrGAH8-72" value="Mã phân ca " style="text;strokeColor=none;fillColor=none;spacingLeft=4;spacingRight=4;overflow=hidden;rotatable=0;points=[[0,0.5],[1,0.5]];portConstraint=eastwest;fontSize=12;fontStyle=1" vertex="1" parent="t0jusX5-IYJ_9TBrGAH8-71">
          <mxGeometry y="26" width="160" height="30" as="geometry" />
        </mxCell>
        <mxCell id="t0jusX5-IYJ_9TBrGAH8-94" value="Tên phân ca" style="text;strokeColor=none;fillColor=none;spacingLeft=4;spacingRight=4;overflow=hidden;rotatable=0;points=[[0,0.5],[1,0.5]];portConstraint=eastwest;fontSize=12;fontStyle=0" vertex="1" parent="t0jusX5-IYJ_9TBrGAH8-71">
          <mxGeometry y="56" width="160" height="30" as="geometry" />
        </mxCell>
        <mxCell id="t0jusX5-IYJ_9TBrGAH8-95" value="Thời gian áp dụng" style="text;strokeColor=none;fillColor=none;spacingLeft=4;spacingRight=4;overflow=hidden;rotatable=0;points=[[0,0.5],[1,0.5]];portConstraint=eastwest;fontSize=12;fontStyle=0" vertex="1" parent="t0jusX5-IYJ_9TBrGAH8-71">
          <mxGeometry y="86" width="160" height="30" as="geometry" />
        </mxCell>
        <mxCell id="t0jusX5-IYJ_9TBrGAH8-96" value="Lịch phân ca" style="text;strokeColor=none;fillColor=none;spacingLeft=4;spacingRight=4;overflow=hidden;rotatable=0;points=[[0,0.5],[1,0.5]];portConstraint=eastwest;fontSize=12;fontStyle=1" vertex="1" parent="t0jusX5-IYJ_9TBrGAH8-71">
          <mxGeometry y="116" width="160" height="30" as="geometry" />
        </mxCell>
        <mxCell id="t0jusX5-IYJ_9TBrGAH8-117" value="Đối tượng phân ca" style="text;strokeColor=none;fillColor=none;spacingLeft=4;spacingRight=4;overflow=hidden;rotatable=0;points=[[0,0.5],[1,0.5]];portConstraint=eastwest;fontSize=12;fontStyle=1" vertex="1" parent="t0jusX5-IYJ_9TBrGAH8-71">
          <mxGeometry y="146" width="160" height="30" as="geometry" />
        </mxCell>
        <mxCell id="t0jusX5-IYJ_9TBrGAH8-135" value="Ngày nghỉ " style="text;strokeColor=none;fillColor=none;spacingLeft=4;spacingRight=4;overflow=hidden;rotatable=0;points=[[0,0.5],[1,0.5]];portConstraint=eastwest;fontSize=12;fontStyle=1" vertex="1" parent="t0jusX5-IYJ_9TBrGAH8-71">
          <mxGeometry y="176" width="160" height="30" as="geometry" />
        </mxCell>
        <mxCell id="t0jusX5-IYJ_9TBrGAH8-73" value="Nhân sự" style="swimlane;fontStyle=0;childLayout=stackLayout;horizontal=1;startSize=26;horizontalStack=0;resizeParent=1;resizeParentMax=0;resizeLast=0;collapsible=1;marginBottom=0;align=center;fontSize=14;" vertex="1" collapsed="1" parent="1">
          <mxGeometry x="2480" y="69" width="170" height="26" as="geometry">
            <mxRectangle x="1450" y="280" width="160" height="386" as="alternateBounds" />
          </mxGeometry>
        </mxCell>
        <mxCell id="t0jusX5-IYJ_9TBrGAH8-74" value="Mã nhân sự" style="text;strokeColor=none;fillColor=none;spacingLeft=4;spacingRight=4;overflow=hidden;rotatable=0;points=[[0,0.5],[1,0.5]];portConstraint=eastwest;fontSize=12;fontStyle=1" vertex="1" parent="t0jusX5-IYJ_9TBrGAH8-73">
          <mxGeometry y="26" width="170" height="30" as="geometry" />
        </mxCell>
        <mxCell id="t0jusX5-IYJ_9TBrGAH8-75" value="Tên nhân sự" style="text;strokeColor=none;fillColor=none;spacingLeft=4;spacingRight=4;overflow=hidden;rotatable=0;points=[[0,0.5],[1,0.5]];portConstraint=eastwest;fontSize=12;fontStyle=1" vertex="1" parent="t0jusX5-IYJ_9TBrGAH8-73">
          <mxGeometry y="56" width="170" height="30" as="geometry" />
        </mxCell>
        <mxCell id="t0jusX5-IYJ_9TBrGAH8-76" value="Đơn vị - Chức danh" style="text;strokeColor=none;fillColor=none;spacingLeft=4;spacingRight=4;overflow=hidden;rotatable=0;points=[[0,0.5],[1,0.5]];portConstraint=eastwest;fontSize=12;fontStyle=1" vertex="1" parent="t0jusX5-IYJ_9TBrGAH8-73">
          <mxGeometry y="86" width="170" height="30" as="geometry" />
        </mxCell>
        <mxCell id="t0jusX5-IYJ_9TBrGAH8-77" value="Email" style="text;strokeColor=none;fillColor=none;spacingLeft=4;spacingRight=4;overflow=hidden;rotatable=0;points=[[0,0.5],[1,0.5]];portConstraint=eastwest;fontSize=12;" vertex="1" parent="t0jusX5-IYJ_9TBrGAH8-73">
          <mxGeometry y="116" width="170" height="30" as="geometry" />
        </mxCell>
        <mxCell id="t0jusX5-IYJ_9TBrGAH8-78" value="Mã chấm công" style="text;strokeColor=none;fillColor=none;spacingLeft=4;spacingRight=4;overflow=hidden;rotatable=0;points=[[0,0.5],[1,0.5]];portConstraint=eastwest;fontSize=12;" vertex="1" parent="t0jusX5-IYJ_9TBrGAH8-73">
          <mxGeometry y="146" width="170" height="30" as="geometry" />
        </mxCell>
        <mxCell id="t0jusX5-IYJ_9TBrGAH8-79" value="Hình thức làm việc" style="text;strokeColor=none;fillColor=none;spacingLeft=4;spacingRight=4;overflow=hidden;rotatable=0;points=[[0,0.5],[1,0.5]];portConstraint=eastwest;fontSize=12;" vertex="1" parent="t0jusX5-IYJ_9TBrGAH8-73">
          <mxGeometry y="176" width="170" height="30" as="geometry" />
        </mxCell>
        <mxCell id="t0jusX5-IYJ_9TBrGAH8-80" value="Ngày bắt đầu" style="text;strokeColor=none;fillColor=none;spacingLeft=4;spacingRight=4;overflow=hidden;rotatable=0;points=[[0,0.5],[1,0.5]];portConstraint=eastwest;fontSize=12;" vertex="1" parent="t0jusX5-IYJ_9TBrGAH8-73">
          <mxGeometry y="206" width="170" height="30" as="geometry" />
        </mxCell>
        <mxCell id="t0jusX5-IYJ_9TBrGAH8-81" value="Ngày bắt đầu thử việc" style="text;strokeColor=none;fillColor=none;spacingLeft=4;spacingRight=4;overflow=hidden;rotatable=0;points=[[0,0.5],[1,0.5]];portConstraint=eastwest;fontSize=12;" vertex="1" parent="t0jusX5-IYJ_9TBrGAH8-73">
          <mxGeometry y="236" width="170" height="30" as="geometry" />
        </mxCell>
        <mxCell id="t0jusX5-IYJ_9TBrGAH8-82" value="Ngày chính thức" style="text;strokeColor=none;fillColor=none;spacingLeft=4;spacingRight=4;overflow=hidden;rotatable=0;points=[[0,0.5],[1,0.5]];portConstraint=eastwest;fontSize=12;" vertex="1" parent="t0jusX5-IYJ_9TBrGAH8-73">
          <mxGeometry y="266" width="170" height="30" as="geometry" />
        </mxCell>
        <mxCell id="t0jusX5-IYJ_9TBrGAH8-83" value="Trạng thái" style="text;strokeColor=none;fillColor=none;spacingLeft=4;spacingRight=4;overflow=hidden;rotatable=0;points=[[0,0.5],[1,0.5]];portConstraint=eastwest;fontSize=12;" vertex="1" parent="t0jusX5-IYJ_9TBrGAH8-73">
          <mxGeometry y="296" width="170" height="30" as="geometry" />
        </mxCell>
        <mxCell id="t0jusX5-IYJ_9TBrGAH8-84" value="Thông tin cá nhân" style="text;strokeColor=none;fillColor=none;spacingLeft=4;spacingRight=4;overflow=hidden;rotatable=0;points=[[0,0.5],[1,0.5]];portConstraint=eastwest;fontSize=12;" vertex="1" parent="t0jusX5-IYJ_9TBrGAH8-73">
          <mxGeometry y="326" width="170" height="30" as="geometry" />
        </mxCell>
        <mxCell id="t0jusX5-IYJ_9TBrGAH8-85" value="Hồ sơ cá nhân" style="text;strokeColor=none;fillColor=none;spacingLeft=4;spacingRight=4;overflow=hidden;rotatable=0;points=[[0,0.5],[1,0.5]];portConstraint=eastwest;fontSize=12;" vertex="1" parent="t0jusX5-IYJ_9TBrGAH8-73">
          <mxGeometry y="356" width="170" height="30" as="geometry" />
        </mxCell>
        <mxCell id="t0jusX5-IYJ_9TBrGAH8-97" value="Lịch phân ca" style="swimlane;fontStyle=0;childLayout=stackLayout;horizontal=1;startSize=26;horizontalStack=0;resizeParent=1;resizeParentMax=0;resizeLast=0;collapsible=1;marginBottom=0;align=center;fontSize=14;" vertex="1" parent="1">
          <mxGeometry x="3030" y="69" width="190" height="116" as="geometry">
            <mxRectangle x="730" y="290" width="130" height="26" as="alternateBounds" />
          </mxGeometry>
        </mxCell>
        <mxCell id="t0jusX5-IYJ_9TBrGAH8-98" value="Loại phân ca" style="text;strokeColor=none;fillColor=none;spacingLeft=4;spacingRight=4;overflow=hidden;rotatable=0;points=[[0,0.5],[1,0.5]];portConstraint=eastwest;fontSize=12;fontStyle=1" vertex="1" parent="t0jusX5-IYJ_9TBrGAH8-97">
          <mxGeometry y="26" width="190" height="30" as="geometry" />
        </mxCell>
        <mxCell id="t0jusX5-IYJ_9TBrGAH8-115" value="Phân ca theo tuần" style="text;strokeColor=none;fillColor=none;spacingLeft=4;spacingRight=4;overflow=hidden;rotatable=0;points=[[0,0.5],[1,0.5]];portConstraint=eastwest;fontSize=12;fontStyle=0" vertex="1" parent="t0jusX5-IYJ_9TBrGAH8-97">
          <mxGeometry y="56" width="190" height="30" as="geometry" />
        </mxCell>
        <mxCell id="t0jusX5-IYJ_9TBrGAH8-116" value="Phân ca theo ngày" style="text;strokeColor=none;fillColor=none;spacingLeft=4;spacingRight=4;overflow=hidden;rotatable=0;points=[[0,0.5],[1,0.5]];portConstraint=eastwest;fontSize=12;fontStyle=0" vertex="1" parent="t0jusX5-IYJ_9TBrGAH8-97">
          <mxGeometry y="86" width="190" height="30" as="geometry" />
        </mxCell>
        <mxCell id="t0jusX5-IYJ_9TBrGAH8-102" value="Phân ca theo ngày" style="swimlane;fontStyle=0;childLayout=stackLayout;horizontal=1;startSize=26;horizontalStack=0;resizeParent=1;resizeParentMax=0;resizeLast=0;collapsible=1;marginBottom=0;align=center;fontSize=14;" vertex="1" parent="1">
          <mxGeometry x="3290" y="370" width="190" height="86" as="geometry">
            <mxRectangle x="730" y="290" width="130" height="26" as="alternateBounds" />
          </mxGeometry>
        </mxCell>
        <mxCell id="t0jusX5-IYJ_9TBrGAH8-103" value="Ngày" style="text;strokeColor=none;fillColor=none;spacingLeft=4;spacingRight=4;overflow=hidden;rotatable=0;points=[[0,0.5],[1,0.5]];portConstraint=eastwest;fontSize=12;fontStyle=1" vertex="1" parent="t0jusX5-IYJ_9TBrGAH8-102">
          <mxGeometry y="26" width="190" height="30" as="geometry" />
        </mxCell>
        <mxCell id="t0jusX5-IYJ_9TBrGAH8-104" value="Mã ca" style="text;strokeColor=none;fillColor=none;spacingLeft=4;spacingRight=4;overflow=hidden;rotatable=0;points=[[0,0.5],[1,0.5]];portConstraint=eastwest;fontSize=12;fontStyle=1" vertex="1" parent="t0jusX5-IYJ_9TBrGAH8-102">
          <mxGeometry y="56" width="190" height="30" as="geometry" />
        </mxCell>
        <mxCell id="t0jusX5-IYJ_9TBrGAH8-107" value="Phân ca theo tuần" style="swimlane;fontStyle=0;childLayout=stackLayout;horizontal=1;startSize=26;horizontalStack=0;resizeParent=1;resizeParentMax=0;resizeLast=0;collapsible=1;marginBottom=0;align=center;fontSize=14;" vertex="1" parent="1">
          <mxGeometry x="3290" y="69" width="190" height="236" as="geometry">
            <mxRectangle x="730" y="290" width="130" height="26" as="alternateBounds" />
          </mxGeometry>
        </mxCell>
        <mxCell id="t0jusX5-IYJ_9TBrGAH8-108" value="Ca ngày thứ 2" style="text;strokeColor=none;fillColor=none;spacingLeft=4;spacingRight=4;overflow=hidden;rotatable=0;points=[[0,0.5],[1,0.5]];portConstraint=eastwest;fontSize=12;fontStyle=0" vertex="1" parent="t0jusX5-IYJ_9TBrGAH8-107">
          <mxGeometry y="26" width="190" height="30" as="geometry" />
        </mxCell>
        <mxCell id="t0jusX5-IYJ_9TBrGAH8-109" value="Ca ngày thứ 3" style="text;strokeColor=none;fillColor=none;spacingLeft=4;spacingRight=4;overflow=hidden;rotatable=0;points=[[0,0.5],[1,0.5]];portConstraint=eastwest;fontSize=12;fontStyle=0" vertex="1" parent="t0jusX5-IYJ_9TBrGAH8-107">
          <mxGeometry y="56" width="190" height="30" as="geometry" />
        </mxCell>
        <mxCell id="t0jusX5-IYJ_9TBrGAH8-110" value="Ca ngày thứ 4" style="text;strokeColor=none;fillColor=none;spacingLeft=4;spacingRight=4;overflow=hidden;rotatable=0;points=[[0,0.5],[1,0.5]];portConstraint=eastwest;fontSize=12;fontStyle=0" vertex="1" parent="t0jusX5-IYJ_9TBrGAH8-107">
          <mxGeometry y="86" width="190" height="30" as="geometry" />
        </mxCell>
        <mxCell id="t0jusX5-IYJ_9TBrGAH8-111" value="Ca ngày thứ 5" style="text;strokeColor=none;fillColor=none;spacingLeft=4;spacingRight=4;overflow=hidden;rotatable=0;points=[[0,0.5],[1,0.5]];portConstraint=eastwest;fontSize=12;fontStyle=0" vertex="1" parent="t0jusX5-IYJ_9TBrGAH8-107">
          <mxGeometry y="116" width="190" height="30" as="geometry" />
        </mxCell>
        <mxCell id="t0jusX5-IYJ_9TBrGAH8-112" value="Ca ngày thứ 6" style="text;strokeColor=none;fillColor=none;spacingLeft=4;spacingRight=4;overflow=hidden;rotatable=0;points=[[0,0.5],[1,0.5]];portConstraint=eastwest;fontSize=12;fontStyle=0" vertex="1" parent="t0jusX5-IYJ_9TBrGAH8-107">
          <mxGeometry y="146" width="190" height="30" as="geometry" />
        </mxCell>
        <mxCell id="t0jusX5-IYJ_9TBrGAH8-113" value="Ca ngày thứ 7" style="text;strokeColor=none;fillColor=none;spacingLeft=4;spacingRight=4;overflow=hidden;rotatable=0;points=[[0,0.5],[1,0.5]];portConstraint=eastwest;fontSize=12;fontStyle=0" vertex="1" parent="t0jusX5-IYJ_9TBrGAH8-107">
          <mxGeometry y="176" width="190" height="30" as="geometry" />
        </mxCell>
        <mxCell id="t0jusX5-IYJ_9TBrGAH8-114" value="Ca ngày chủ nhật" style="text;strokeColor=none;fillColor=none;spacingLeft=4;spacingRight=4;overflow=hidden;rotatable=0;points=[[0,0.5],[1,0.5]];portConstraint=eastwest;fontSize=12;fontStyle=0" vertex="1" parent="t0jusX5-IYJ_9TBrGAH8-107">
          <mxGeometry y="206" width="190" height="30" as="geometry" />
        </mxCell>
        <mxCell id="t0jusX5-IYJ_9TBrGAH8-118" value="" style="edgeStyle=entityRelationEdgeStyle;fontSize=12;html=1;endArrow=ERoneToMany;entryX=0;entryY=0.5;entryDx=0;entryDy=0;exitX=1;exitY=0.5;exitDx=0;exitDy=0;" edge="1" parent="1" source="t0jusX5-IYJ_9TBrGAH8-73" target="t0jusX5-IYJ_9TBrGAH8-96">
          <mxGeometry width="100" height="100" relative="1" as="geometry">
            <mxPoint x="2650" y="245" as="sourcePoint" />
            <mxPoint x="2740" y="210" as="targetPoint" />
          </mxGeometry>
        </mxCell>
        <mxCell id="t0jusX5-IYJ_9TBrGAH8-119" value="1-n" style="text;html=1;align=center;verticalAlign=middle;resizable=0;points=[];autosize=1;strokeColor=none;" vertex="1" parent="1">
          <mxGeometry x="2670" y="138" width="30" height="20" as="geometry" />
        </mxCell>
        <mxCell id="t0jusX5-IYJ_9TBrGAH8-121" value="" style="edgeStyle=entityRelationEdgeStyle;fontSize=12;html=1;endArrow=ERzeroToMany;endFill=1;entryX=0;entryY=0.5;entryDx=0;entryDy=0;" edge="1" parent="1" target="t0jusX5-IYJ_9TBrGAH8-110">
          <mxGeometry width="100" height="100" relative="1" as="geometry">
            <mxPoint x="3220" y="110" as="sourcePoint" />
            <mxPoint x="3280" y="185" as="targetPoint" />
          </mxGeometry>
        </mxCell>
        <mxCell id="t0jusX5-IYJ_9TBrGAH8-122" value="" style="edgeStyle=entityRelationEdgeStyle;fontSize=12;html=1;endArrow=ERzeroToMany;endFill=1;entryX=0;entryY=0.5;entryDx=0;entryDy=0;exitX=1;exitY=0.5;exitDx=0;exitDy=0;" edge="1" parent="1" source="t0jusX5-IYJ_9TBrGAH8-116" target="t0jusX5-IYJ_9TBrGAH8-103">
          <mxGeometry width="100" height="100" relative="1" as="geometry">
            <mxPoint x="2840" y="350" as="sourcePoint" />
            <mxPoint x="2940" y="250" as="targetPoint" />
          </mxGeometry>
        </mxCell>
        <mxCell id="t0jusX5-IYJ_9TBrGAH8-123" value="" style="edgeStyle=entityRelationEdgeStyle;fontSize=12;html=1;endArrow=ERoneToMany;entryX=1;entryY=0.5;entryDx=0;entryDy=0;exitX=0;exitY=0.5;exitDx=0;exitDy=0;" edge="1" parent="1" source="t0jusX5-IYJ_9TBrGAH8-104" target="t0jusX5-IYJ_9TBrGAH8-90">
          <mxGeometry width="100" height="100" relative="1" as="geometry">
            <mxPoint x="2840" y="350" as="sourcePoint" />
            <mxPoint x="2940" y="250" as="targetPoint" />
          </mxGeometry>
        </mxCell>
        <mxCell id="t0jusX5-IYJ_9TBrGAH8-124" value="n-1" style="text;html=1;align=center;verticalAlign=middle;resizable=0;points=[];autosize=1;strokeColor=none;" vertex="1" parent="1">
          <mxGeometry x="3215" y="430" width="30" height="20" as="geometry" />
        </mxCell>
        <mxCell id="t0jusX5-IYJ_9TBrGAH8-125" value="1-n" style="text;html=1;align=center;verticalAlign=middle;resizable=0;points=[];autosize=1;strokeColor=none;" vertex="1" parent="1">
          <mxGeometry x="3215" y="260" width="30" height="20" as="geometry" />
        </mxCell>
        <mxCell id="t0jusX5-IYJ_9TBrGAH8-126" value="1-n" style="text;html=1;align=center;verticalAlign=middle;resizable=0;points=[];autosize=1;strokeColor=none;" vertex="1" parent="1">
          <mxGeometry x="3245" y="90" width="30" height="20" as="geometry" />
        </mxCell>
        <mxCell id="t0jusX5-IYJ_9TBrGAH8-127" value="" style="edgeStyle=entityRelationEdgeStyle;fontSize=12;html=1;endArrow=ERmandOne;startArrow=ERmandOne;entryX=0;entryY=0.5;entryDx=0;entryDy=0;exitX=1;exitY=0.5;exitDx=0;exitDy=0;" edge="1" parent="1" source="t0jusX5-IYJ_9TBrGAH8-94" target="t0jusX5-IYJ_9TBrGAH8-116">
          <mxGeometry width="100" height="100" relative="1" as="geometry">
            <mxPoint x="2840" y="350" as="sourcePoint" />
            <mxPoint x="2940" y="250" as="targetPoint" />
          </mxGeometry>
        </mxCell>
        <mxCell id="t0jusX5-IYJ_9TBrGAH8-128" value="1-1" style="text;html=1;align=center;verticalAlign=middle;resizable=0;points=[];autosize=1;strokeColor=none;" vertex="1" parent="1">
          <mxGeometry x="2960" y="165" width="30" height="20" as="geometry" />
        </mxCell>
        <mxCell id="t0jusX5-IYJ_9TBrGAH8-129" value="Ngày nghỉ" style="swimlane;fontStyle=0;childLayout=stackLayout;horizontal=1;startSize=26;horizontalStack=0;resizeParent=1;resizeParentMax=0;resizeLast=0;collapsible=1;marginBottom=0;align=center;fontSize=14;" vertex="1" parent="1">
          <mxGeometry x="2480" y="325" width="160" height="146" as="geometry">
            <mxRectangle x="730" y="290" width="130" height="26" as="alternateBounds" />
          </mxGeometry>
        </mxCell>
        <mxCell id="t0jusX5-IYJ_9TBrGAH8-130" value="Lý do nghỉ " style="text;strokeColor=none;fillColor=none;spacingLeft=4;spacingRight=4;overflow=hidden;rotatable=0;points=[[0,0.5],[1,0.5]];portConstraint=eastwest;fontSize=12;fontStyle=1" vertex="1" parent="t0jusX5-IYJ_9TBrGAH8-129">
          <mxGeometry y="26" width="160" height="30" as="geometry" />
        </mxCell>
        <mxCell id="t0jusX5-IYJ_9TBrGAH8-131" value="Loại nghỉ " style="text;strokeColor=none;fillColor=none;spacingLeft=4;spacingRight=4;overflow=hidden;rotatable=0;points=[[0,0.5],[1,0.5]];portConstraint=eastwest;fontSize=12;fontStyle=0" vertex="1" parent="t0jusX5-IYJ_9TBrGAH8-129">
          <mxGeometry y="56" width="160" height="30" as="geometry" />
        </mxCell>
        <mxCell id="t0jusX5-IYJ_9TBrGAH8-132" value="Tính công " style="text;strokeColor=none;fillColor=none;spacingLeft=4;spacingRight=4;overflow=hidden;rotatable=0;points=[[0,0.5],[1,0.5]];portConstraint=eastwest;fontSize=12;fontStyle=0" vertex="1" parent="t0jusX5-IYJ_9TBrGAH8-129">
          <mxGeometry y="86" width="160" height="30" as="geometry" />
        </mxCell>
        <mxCell id="t0jusX5-IYJ_9TBrGAH8-134" value="Đối tượng áp dụng" style="text;strokeColor=none;fillColor=none;spacingLeft=4;spacingRight=4;overflow=hidden;rotatable=0;points=[[0,0.5],[1,0.5]];portConstraint=eastwest;fontSize=12;fontStyle=1" vertex="1" parent="t0jusX5-IYJ_9TBrGAH8-129">
          <mxGeometry y="116" width="160" height="30" as="geometry" />
        </mxCell>
        <mxCell id="t0jusX5-IYJ_9TBrGAH8-137" value="" style="edgeStyle=entityRelationEdgeStyle;fontSize=12;html=1;endArrow=ERzeroToMany;endFill=1;entryX=1;entryY=0.5;entryDx=0;entryDy=0;exitX=0;exitY=0.5;exitDx=0;exitDy=0;" edge="1" parent="1" source="t0jusX5-IYJ_9TBrGAH8-135" target="t0jusX5-IYJ_9TBrGAH8-131">
          <mxGeometry width="100" height="100" relative="1" as="geometry">
            <mxPoint x="2710" y="405" as="sourcePoint" />
            <mxPoint x="2810" y="305" as="targetPoint" />
          </mxGeometry>
        </mxCell>
        <mxCell id="t0jusX5-IYJ_9TBrGAH8-139" value="0-n" style="text;html=1;align=center;verticalAlign=middle;resizable=0;points=[];autosize=1;strokeColor=none;" vertex="1" parent="1">
          <mxGeometry x="2670" y="310" width="30" height="20" as="geometry" />
        </mxCell>
        <mxCell id="t0jusX5-IYJ_9TBrGAH8-153" value="Đề xuất tuyển dụng" style="swimlane;fontStyle=0;childLayout=stackLayout;horizontal=1;startSize=26;horizontalStack=0;resizeParent=1;resizeParentMax=0;resizeLast=0;collapsible=1;marginBottom=0;align=center;fontSize=14;" vertex="1" parent="1">
          <mxGeometry x="4370" y="60" width="190" height="236" as="geometry">
            <mxRectangle x="730" y="290" width="130" height="26" as="alternateBounds" />
          </mxGeometry>
        </mxCell>
        <mxCell id="t0jusX5-IYJ_9TBrGAH8-154" value="Tiêu đề" style="text;strokeColor=none;fillColor=none;spacingLeft=4;spacingRight=4;overflow=hidden;rotatable=0;points=[[0,0.5],[1,0.5]];portConstraint=eastwest;fontSize=12;fontStyle=1" vertex="1" parent="t0jusX5-IYJ_9TBrGAH8-153">
          <mxGeometry y="26" width="190" height="30" as="geometry" />
        </mxCell>
        <mxCell id="t0jusX5-IYJ_9TBrGAH8-155" value="Đơn vị" style="text;strokeColor=none;fillColor=none;spacingLeft=4;spacingRight=4;overflow=hidden;rotatable=0;points=[[0,0.5],[1,0.5]];portConstraint=eastwest;fontSize=12;fontStyle=0" vertex="1" parent="t0jusX5-IYJ_9TBrGAH8-153">
          <mxGeometry y="56" width="190" height="30" as="geometry" />
        </mxCell>
        <mxCell id="t0jusX5-IYJ_9TBrGAH8-156" value="Vị trí tuyển dụng" style="text;strokeColor=none;fillColor=none;spacingLeft=4;spacingRight=4;overflow=hidden;rotatable=0;points=[[0,0.5],[1,0.5]];portConstraint=eastwest;fontSize=12;fontStyle=0" vertex="1" parent="t0jusX5-IYJ_9TBrGAH8-153">
          <mxGeometry y="86" width="190" height="30" as="geometry" />
        </mxCell>
        <mxCell id="t0jusX5-IYJ_9TBrGAH8-171" value="Hình thức làm việc" style="text;strokeColor=none;fillColor=none;spacingLeft=4;spacingRight=4;overflow=hidden;rotatable=0;points=[[0,0.5],[1,0.5]];portConstraint=eastwest;fontSize=12;fontStyle=0" vertex="1" parent="t0jusX5-IYJ_9TBrGAH8-153">
          <mxGeometry y="116" width="190" height="30" as="geometry" />
        </mxCell>
        <mxCell id="t0jusX5-IYJ_9TBrGAH8-172" value="Số lượng" style="text;strokeColor=none;fillColor=none;spacingLeft=4;spacingRight=4;overflow=hidden;rotatable=0;points=[[0,0.5],[1,0.5]];portConstraint=eastwest;fontSize=12;fontStyle=0" vertex="1" parent="t0jusX5-IYJ_9TBrGAH8-153">
          <mxGeometry y="146" width="190" height="30" as="geometry" />
        </mxCell>
        <mxCell id="t0jusX5-IYJ_9TBrGAH8-186" value="Người duyệt (nhân sự)" style="text;strokeColor=none;fillColor=none;spacingLeft=4;spacingRight=4;overflow=hidden;rotatable=0;points=[[0,0.5],[1,0.5]];portConstraint=eastwest;fontSize=12;fontStyle=1" vertex="1" parent="t0jusX5-IYJ_9TBrGAH8-153">
          <mxGeometry y="176" width="190" height="30" as="geometry" />
        </mxCell>
        <mxCell id="t0jusX5-IYJ_9TBrGAH8-187" value="Mô tả công việc" style="text;strokeColor=none;fillColor=none;spacingLeft=4;spacingRight=4;overflow=hidden;rotatable=0;points=[[0,0.5],[1,0.5]];portConstraint=eastwest;fontSize=12;fontStyle=0" vertex="1" parent="t0jusX5-IYJ_9TBrGAH8-153">
          <mxGeometry y="206" width="190" height="30" as="geometry" />
        </mxCell>
        <mxCell id="t0jusX5-IYJ_9TBrGAH8-157" value="Đơn vị" style="swimlane;fontStyle=0;childLayout=stackLayout;horizontal=1;startSize=26;horizontalStack=0;resizeParent=1;resizeParentMax=0;resizeLast=0;collapsible=1;marginBottom=0;align=center;fontSize=14;" vertex="1" collapsed="1" parent="1">
          <mxGeometry x="4690" y="60" width="120" height="26" as="geometry">
            <mxRectangle x="4190" y="64" width="160" height="176" as="alternateBounds" />
          </mxGeometry>
        </mxCell>
        <mxCell id="t0jusX5-IYJ_9TBrGAH8-158" value="Mã đơn vị" style="text;strokeColor=none;fillColor=none;spacingLeft=4;spacingRight=4;overflow=hidden;rotatable=0;points=[[0,0.5],[1,0.5]];portConstraint=eastwest;fontSize=12;fontStyle=1" vertex="1" parent="t0jusX5-IYJ_9TBrGAH8-157">
          <mxGeometry y="26" width="120" height="30" as="geometry" />
        </mxCell>
        <mxCell id="t0jusX5-IYJ_9TBrGAH8-159" value="Tên đơn vị" style="text;strokeColor=none;fillColor=none;spacingLeft=4;spacingRight=4;overflow=hidden;rotatable=0;points=[[0,0.5],[1,0.5]];portConstraint=eastwest;fontSize=12;fontStyle=1" vertex="1" parent="t0jusX5-IYJ_9TBrGAH8-157">
          <mxGeometry y="56" width="120" height="30" as="geometry" />
        </mxCell>
        <mxCell id="t0jusX5-IYJ_9TBrGAH8-160" value="Trạng thái" style="text;strokeColor=none;fillColor=none;spacingLeft=4;spacingRight=4;overflow=hidden;rotatable=0;points=[[0,0.5],[1,0.5]];portConstraint=eastwest;fontSize=12;" vertex="1" parent="t0jusX5-IYJ_9TBrGAH8-157">
          <mxGeometry y="86" width="120" height="30" as="geometry" />
        </mxCell>
        <mxCell id="t0jusX5-IYJ_9TBrGAH8-161" value="Ngày thành lập" style="text;strokeColor=none;fillColor=none;spacingLeft=4;spacingRight=4;overflow=hidden;rotatable=0;points=[[0,0.5],[1,0.5]];portConstraint=eastwest;fontSize=12;" vertex="1" parent="t0jusX5-IYJ_9TBrGAH8-157">
          <mxGeometry y="116" width="120" height="30" as="geometry" />
        </mxCell>
        <mxCell id="t0jusX5-IYJ_9TBrGAH8-162" value="Mã Đơn vị cấp trên" style="text;strokeColor=none;fillColor=none;spacingLeft=4;spacingRight=4;overflow=hidden;rotatable=0;points=[[0,0.5],[1,0.5]];portConstraint=eastwest;fontSize=12;fontStyle=1" vertex="1" parent="t0jusX5-IYJ_9TBrGAH8-157">
          <mxGeometry y="146" width="120" height="30" as="geometry" />
        </mxCell>
        <mxCell id="t0jusX5-IYJ_9TBrGAH8-163" value="" style="edgeStyle=entityRelationEdgeStyle;fontSize=12;html=1;endArrow=ERzeroToOne;endFill=1;exitX=1;exitY=0.5;exitDx=0;exitDy=0;entryX=1;entryY=0.5;entryDx=0;entryDy=0;" edge="1" parent="t0jusX5-IYJ_9TBrGAH8-157" source="t0jusX5-IYJ_9TBrGAH8-158" target="t0jusX5-IYJ_9TBrGAH8-160">
          <mxGeometry width="100" height="100" relative="1" as="geometry">
            <mxPoint x="320" y="320" as="sourcePoint" />
            <mxPoint x="420" y="220" as="targetPoint" />
          </mxGeometry>
        </mxCell>
        <mxCell id="t0jusX5-IYJ_9TBrGAH8-164" value="Vị trí tuyển dụng" style="swimlane;fontStyle=0;childLayout=stackLayout;horizontal=1;startSize=26;horizontalStack=0;resizeParent=1;resizeParentMax=0;resizeLast=0;collapsible=1;marginBottom=0;align=center;fontSize=14;" vertex="1" parent="1">
          <mxGeometry x="4690" y="93" width="190" height="56" as="geometry">
            <mxRectangle x="730" y="290" width="130" height="26" as="alternateBounds" />
          </mxGeometry>
        </mxCell>
        <mxCell id="t0jusX5-IYJ_9TBrGAH8-165" value="Tên vị trí" style="text;strokeColor=none;fillColor=none;spacingLeft=4;spacingRight=4;overflow=hidden;rotatable=0;points=[[0,0.5],[1,0.5]];portConstraint=eastwest;fontSize=12;fontStyle=1" vertex="1" parent="t0jusX5-IYJ_9TBrGAH8-164">
          <mxGeometry y="26" width="190" height="30" as="geometry" />
        </mxCell>
        <mxCell id="t0jusX5-IYJ_9TBrGAH8-168" value="Hình thức làm việc" style="swimlane;fontStyle=0;childLayout=stackLayout;horizontal=1;startSize=26;horizontalStack=0;resizeParent=1;resizeParentMax=0;resizeLast=0;collapsible=1;marginBottom=0;align=center;fontSize=14;" vertex="1" collapsed="1" parent="1">
          <mxGeometry x="4690" y="156" width="190" height="26" as="geometry">
            <mxRectangle x="4200" y="299" width="160" height="86" as="alternateBounds" />
          </mxGeometry>
        </mxCell>
        <mxCell id="t0jusX5-IYJ_9TBrGAH8-169" value="Hình thức làm việc" style="text;strokeColor=none;fillColor=none;spacingLeft=4;spacingRight=4;overflow=hidden;rotatable=0;points=[[0,0.5],[1,0.5]];portConstraint=eastwest;fontSize=12;fontStyle=1" vertex="1" parent="t0jusX5-IYJ_9TBrGAH8-168">
          <mxGeometry y="26" width="190" height="30" as="geometry" />
        </mxCell>
        <mxCell id="t0jusX5-IYJ_9TBrGAH8-170" value="Mô tả" style="text;strokeColor=none;fillColor=none;spacingLeft=4;spacingRight=4;overflow=hidden;rotatable=0;points=[[0,0.5],[1,0.5]];portConstraint=eastwest;fontSize=12;fontStyle=0" vertex="1" parent="t0jusX5-IYJ_9TBrGAH8-168">
          <mxGeometry y="56" width="190" height="30" as="geometry" />
        </mxCell>
        <mxCell id="t0jusX5-IYJ_9TBrGAH8-173" value="Nhân sự" style="swimlane;fontStyle=0;childLayout=stackLayout;horizontal=1;startSize=26;horizontalStack=0;resizeParent=1;resizeParentMax=0;resizeLast=0;collapsible=1;marginBottom=0;align=center;fontSize=14;" vertex="1" collapsed="1" parent="1">
          <mxGeometry x="4370" y="496" width="190" height="26" as="geometry">
            <mxRectangle x="1450" y="280" width="160" height="386" as="alternateBounds" />
          </mxGeometry>
        </mxCell>
        <mxCell id="t0jusX5-IYJ_9TBrGAH8-174" value="Mã nhân sự" style="text;strokeColor=none;fillColor=none;spacingLeft=4;spacingRight=4;overflow=hidden;rotatable=0;points=[[0,0.5],[1,0.5]];portConstraint=eastwest;fontSize=12;fontStyle=1" vertex="1" parent="t0jusX5-IYJ_9TBrGAH8-173">
          <mxGeometry y="26" width="190" height="30" as="geometry" />
        </mxCell>
        <mxCell id="t0jusX5-IYJ_9TBrGAH8-175" value="Tên nhân sự" style="text;strokeColor=none;fillColor=none;spacingLeft=4;spacingRight=4;overflow=hidden;rotatable=0;points=[[0,0.5],[1,0.5]];portConstraint=eastwest;fontSize=12;fontStyle=1" vertex="1" parent="t0jusX5-IYJ_9TBrGAH8-173">
          <mxGeometry y="56" width="190" height="30" as="geometry" />
        </mxCell>
        <mxCell id="t0jusX5-IYJ_9TBrGAH8-176" value="Đơn vị - Chức danh" style="text;strokeColor=none;fillColor=none;spacingLeft=4;spacingRight=4;overflow=hidden;rotatable=0;points=[[0,0.5],[1,0.5]];portConstraint=eastwest;fontSize=12;fontStyle=1" vertex="1" parent="t0jusX5-IYJ_9TBrGAH8-173">
          <mxGeometry y="86" width="190" height="30" as="geometry" />
        </mxCell>
        <mxCell id="t0jusX5-IYJ_9TBrGAH8-177" value="Email" style="text;strokeColor=none;fillColor=none;spacingLeft=4;spacingRight=4;overflow=hidden;rotatable=0;points=[[0,0.5],[1,0.5]];portConstraint=eastwest;fontSize=12;" vertex="1" parent="t0jusX5-IYJ_9TBrGAH8-173">
          <mxGeometry y="116" width="190" height="30" as="geometry" />
        </mxCell>
        <mxCell id="t0jusX5-IYJ_9TBrGAH8-178" value="Mã chấm công" style="text;strokeColor=none;fillColor=none;spacingLeft=4;spacingRight=4;overflow=hidden;rotatable=0;points=[[0,0.5],[1,0.5]];portConstraint=eastwest;fontSize=12;" vertex="1" parent="t0jusX5-IYJ_9TBrGAH8-173">
          <mxGeometry y="146" width="190" height="30" as="geometry" />
        </mxCell>
        <mxCell id="t0jusX5-IYJ_9TBrGAH8-179" value="Hình thức làm việc" style="text;strokeColor=none;fillColor=none;spacingLeft=4;spacingRight=4;overflow=hidden;rotatable=0;points=[[0,0.5],[1,0.5]];portConstraint=eastwest;fontSize=12;" vertex="1" parent="t0jusX5-IYJ_9TBrGAH8-173">
          <mxGeometry y="176" width="190" height="30" as="geometry" />
        </mxCell>
        <mxCell id="t0jusX5-IYJ_9TBrGAH8-180" value="Ngày bắt đầu" style="text;strokeColor=none;fillColor=none;spacingLeft=4;spacingRight=4;overflow=hidden;rotatable=0;points=[[0,0.5],[1,0.5]];portConstraint=eastwest;fontSize=12;" vertex="1" parent="t0jusX5-IYJ_9TBrGAH8-173">
          <mxGeometry y="206" width="190" height="30" as="geometry" />
        </mxCell>
        <mxCell id="t0jusX5-IYJ_9TBrGAH8-181" value="Ngày bắt đầu thử việc" style="text;strokeColor=none;fillColor=none;spacingLeft=4;spacingRight=4;overflow=hidden;rotatable=0;points=[[0,0.5],[1,0.5]];portConstraint=eastwest;fontSize=12;" vertex="1" parent="t0jusX5-IYJ_9TBrGAH8-173">
          <mxGeometry y="236" width="190" height="30" as="geometry" />
        </mxCell>
        <mxCell id="t0jusX5-IYJ_9TBrGAH8-182" value="Ngày chính thức" style="text;strokeColor=none;fillColor=none;spacingLeft=4;spacingRight=4;overflow=hidden;rotatable=0;points=[[0,0.5],[1,0.5]];portConstraint=eastwest;fontSize=12;" vertex="1" parent="t0jusX5-IYJ_9TBrGAH8-173">
          <mxGeometry y="266" width="190" height="30" as="geometry" />
        </mxCell>
        <mxCell id="t0jusX5-IYJ_9TBrGAH8-183" value="Trạng thái" style="text;strokeColor=none;fillColor=none;spacingLeft=4;spacingRight=4;overflow=hidden;rotatable=0;points=[[0,0.5],[1,0.5]];portConstraint=eastwest;fontSize=12;" vertex="1" parent="t0jusX5-IYJ_9TBrGAH8-173">
          <mxGeometry y="296" width="190" height="30" as="geometry" />
        </mxCell>
        <mxCell id="t0jusX5-IYJ_9TBrGAH8-184" value="Thông tin cá nhân" style="text;strokeColor=none;fillColor=none;spacingLeft=4;spacingRight=4;overflow=hidden;rotatable=0;points=[[0,0.5],[1,0.5]];portConstraint=eastwest;fontSize=12;" vertex="1" parent="t0jusX5-IYJ_9TBrGAH8-173">
          <mxGeometry y="326" width="190" height="30" as="geometry" />
        </mxCell>
        <mxCell id="t0jusX5-IYJ_9TBrGAH8-185" value="Hồ sơ cá nhân" style="text;strokeColor=none;fillColor=none;spacingLeft=4;spacingRight=4;overflow=hidden;rotatable=0;points=[[0,0.5],[1,0.5]];portConstraint=eastwest;fontSize=12;" vertex="1" parent="t0jusX5-IYJ_9TBrGAH8-173">
          <mxGeometry y="356" width="190" height="30" as="geometry" />
        </mxCell>
        <mxCell id="t0jusX5-IYJ_9TBrGAH8-188" value="Quy trình tuyển dụng" style="swimlane;fontStyle=0;childLayout=stackLayout;horizontal=1;startSize=26;horizontalStack=0;resizeParent=1;resizeParentMax=0;resizeLast=0;collapsible=1;marginBottom=0;align=center;fontSize=14;" vertex="1" parent="1">
          <mxGeometry x="4690" y="261" width="190" height="86" as="geometry">
            <mxRectangle x="730" y="290" width="130" height="26" as="alternateBounds" />
          </mxGeometry>
        </mxCell>
        <mxCell id="t0jusX5-IYJ_9TBrGAH8-189" value="Tên quy trình" style="text;strokeColor=none;fillColor=none;spacingLeft=4;spacingRight=4;overflow=hidden;rotatable=0;points=[[0,0.5],[1,0.5]];portConstraint=eastwest;fontSize=12;fontStyle=1" vertex="1" parent="t0jusX5-IYJ_9TBrGAH8-188">
          <mxGeometry y="26" width="190" height="30" as="geometry" />
        </mxCell>
        <mxCell id="t0jusX5-IYJ_9TBrGAH8-212" value="Giai đoạn" style="text;strokeColor=none;fillColor=none;spacingLeft=4;spacingRight=4;overflow=hidden;rotatable=0;points=[[0,0.5],[1,0.5]];portConstraint=eastwest;fontSize=12;fontStyle=0" vertex="1" parent="t0jusX5-IYJ_9TBrGAH8-188">
          <mxGeometry y="56" width="190" height="30" as="geometry" />
        </mxCell>
        <mxCell id="t0jusX5-IYJ_9TBrGAH8-196" value="Nhóm tuyển dụng" style="swimlane;fontStyle=0;childLayout=stackLayout;horizontal=1;startSize=26;horizontalStack=0;resizeParent=1;resizeParentMax=0;resizeLast=0;collapsible=1;marginBottom=0;align=center;fontSize=14;" vertex="1" parent="1">
          <mxGeometry x="4690" y="471" width="190" height="116" as="geometry">
            <mxRectangle x="730" y="290" width="130" height="26" as="alternateBounds" />
          </mxGeometry>
        </mxCell>
        <mxCell id="t0jusX5-IYJ_9TBrGAH8-197" value="Tên nhóm" style="text;strokeColor=none;fillColor=none;spacingLeft=4;spacingRight=4;overflow=hidden;rotatable=0;points=[[0,0.5],[1,0.5]];portConstraint=eastwest;fontSize=12;fontStyle=1" vertex="1" parent="t0jusX5-IYJ_9TBrGAH8-196">
          <mxGeometry y="26" width="190" height="30" as="geometry" />
        </mxCell>
        <mxCell id="t0jusX5-IYJ_9TBrGAH8-206" value="Quản lí nhóm" style="text;strokeColor=none;fillColor=none;spacingLeft=4;spacingRight=4;overflow=hidden;rotatable=0;points=[[0,0.5],[1,0.5]];portConstraint=eastwest;fontSize=12;fontStyle=1" vertex="1" parent="t0jusX5-IYJ_9TBrGAH8-196">
          <mxGeometry y="56" width="190" height="30" as="geometry" />
        </mxCell>
        <mxCell id="t0jusX5-IYJ_9TBrGAH8-207" value="Thành viên" style="text;strokeColor=none;fillColor=none;spacingLeft=4;spacingRight=4;overflow=hidden;rotatable=0;points=[[0,0.5],[1,0.5]];portConstraint=eastwest;fontSize=12;fontStyle=1" vertex="1" parent="t0jusX5-IYJ_9TBrGAH8-196">
          <mxGeometry y="86" width="190" height="30" as="geometry" />
        </mxCell>
        <mxCell id="t0jusX5-IYJ_9TBrGAH8-204" value="Mẫu đánh giá" style="swimlane;fontStyle=0;childLayout=stackLayout;horizontal=1;startSize=26;horizontalStack=0;resizeParent=1;resizeParentMax=0;resizeLast=0;collapsible=1;marginBottom=0;align=center;fontSize=14;" vertex="1" parent="1">
          <mxGeometry x="4690" y="731" width="190" height="116" as="geometry">
            <mxRectangle x="730" y="290" width="130" height="26" as="alternateBounds" />
          </mxGeometry>
        </mxCell>
        <mxCell id="t0jusX5-IYJ_9TBrGAH8-205" value="Tiêu đề" style="text;strokeColor=none;fillColor=none;spacingLeft=4;spacingRight=4;overflow=hidden;rotatable=0;points=[[0,0.5],[1,0.5]];portConstraint=eastwest;fontSize=12;fontStyle=1" vertex="1" parent="t0jusX5-IYJ_9TBrGAH8-204">
          <mxGeometry y="26" width="190" height="30" as="geometry" />
        </mxCell>
        <mxCell id="t0jusX5-IYJ_9TBrGAH8-213" value="Mô tả" style="text;strokeColor=none;fillColor=none;spacingLeft=4;spacingRight=4;overflow=hidden;rotatable=0;points=[[0,0.5],[1,0.5]];portConstraint=eastwest;fontSize=12;fontStyle=0" vertex="1" parent="t0jusX5-IYJ_9TBrGAH8-204">
          <mxGeometry y="56" width="190" height="30" as="geometry" />
        </mxCell>
        <mxCell id="t0jusX5-IYJ_9TBrGAH8-224" value="Tiêu chí đánh giá" style="text;strokeColor=none;fillColor=none;spacingLeft=4;spacingRight=4;overflow=hidden;rotatable=0;points=[[0,0.5],[1,0.5]];portConstraint=eastwest;fontSize=12;fontStyle=1" vertex="1" parent="t0jusX5-IYJ_9TBrGAH8-204">
          <mxGeometry y="86" width="190" height="30" as="geometry" />
        </mxCell>
        <mxCell id="t0jusX5-IYJ_9TBrGAH8-208" value="Giai đoạn" style="swimlane;fontStyle=0;childLayout=stackLayout;horizontal=1;startSize=26;horizontalStack=0;resizeParent=1;resizeParentMax=0;resizeLast=0;collapsible=1;marginBottom=0;align=center;fontSize=14;" vertex="1" parent="1">
          <mxGeometry x="4990" y="260" width="190" height="116" as="geometry">
            <mxRectangle x="730" y="290" width="130" height="26" as="alternateBounds" />
          </mxGeometry>
        </mxCell>
        <mxCell id="t0jusX5-IYJ_9TBrGAH8-209" value="Tên giai đoạn" style="text;strokeColor=none;fillColor=none;spacingLeft=4;spacingRight=4;overflow=hidden;rotatable=0;points=[[0,0.5],[1,0.5]];portConstraint=eastwest;fontSize=12;fontStyle=1" vertex="1" parent="t0jusX5-IYJ_9TBrGAH8-208">
          <mxGeometry y="26" width="190" height="30" as="geometry" />
        </mxCell>
        <mxCell id="t0jusX5-IYJ_9TBrGAH8-210" value="Duyệt hồ sơ" style="text;strokeColor=none;fillColor=none;spacingLeft=4;spacingRight=4;overflow=hidden;rotatable=0;points=[[0,0.5],[1,0.5]];portConstraint=eastwest;fontSize=12;fontStyle=0" vertex="1" parent="t0jusX5-IYJ_9TBrGAH8-208">
          <mxGeometry y="56" width="190" height="30" as="geometry" />
        </mxCell>
        <mxCell id="t0jusX5-IYJ_9TBrGAH8-211" value="Đánh giá ứng viên" style="text;strokeColor=none;fillColor=none;spacingLeft=4;spacingRight=4;overflow=hidden;rotatable=0;points=[[0,0.5],[1,0.5]];portConstraint=eastwest;fontSize=12;fontStyle=0" vertex="1" parent="t0jusX5-IYJ_9TBrGAH8-208">
          <mxGeometry y="86" width="190" height="30" as="geometry" />
        </mxCell>
        <mxCell id="t0jusX5-IYJ_9TBrGAH8-215" value="Tiêu chí đánh giá" style="swimlane;fontStyle=0;childLayout=stackLayout;horizontal=1;startSize=26;horizontalStack=0;resizeParent=1;resizeParentMax=0;resizeLast=0;collapsible=1;marginBottom=0;align=center;fontSize=14;" vertex="1" parent="1">
          <mxGeometry x="5010" y="731" width="190" height="116" as="geometry">
            <mxRectangle x="730" y="290" width="130" height="26" as="alternateBounds" />
          </mxGeometry>
        </mxCell>
        <mxCell id="t0jusX5-IYJ_9TBrGAH8-216" value="Tiêu chí đánh giá" style="text;strokeColor=none;fillColor=none;spacingLeft=4;spacingRight=4;overflow=hidden;rotatable=0;points=[[0,0.5],[1,0.5]];portConstraint=eastwest;fontSize=12;fontStyle=1" vertex="1" parent="t0jusX5-IYJ_9TBrGAH8-215">
          <mxGeometry y="26" width="190" height="30" as="geometry" />
        </mxCell>
        <mxCell id="t0jusX5-IYJ_9TBrGAH8-217" value="Kiểu đánh giá" style="text;strokeColor=none;fillColor=none;spacingLeft=4;spacingRight=4;overflow=hidden;rotatable=0;points=[[0,0.5],[1,0.5]];portConstraint=eastwest;fontSize=12;fontStyle=0" vertex="1" parent="t0jusX5-IYJ_9TBrGAH8-215">
          <mxGeometry y="56" width="190" height="30" as="geometry" />
        </mxCell>
        <mxCell id="t0jusX5-IYJ_9TBrGAH8-223" value="Kết quả đánh giá" style="text;strokeColor=none;fillColor=none;spacingLeft=4;spacingRight=4;overflow=hidden;rotatable=0;points=[[0,0.5],[1,0.5]];portConstraint=eastwest;fontSize=12;fontStyle=0" vertex="1" parent="t0jusX5-IYJ_9TBrGAH8-215">
          <mxGeometry y="86" width="190" height="30" as="geometry" />
        </mxCell>
        <mxCell id="t0jusX5-IYJ_9TBrGAH8-219" value="Kết quả đánh giá " style="swimlane;fontStyle=0;childLayout=stackLayout;horizontal=1;startSize=26;horizontalStack=0;resizeParent=1;resizeParentMax=0;resizeLast=0;collapsible=1;marginBottom=0;align=center;fontSize=14;" vertex="1" parent="1">
          <mxGeometry x="4370" y="721" width="190" height="116" as="geometry">
            <mxRectangle x="730" y="290" width="130" height="26" as="alternateBounds" />
          </mxGeometry>
        </mxCell>
        <mxCell id="t0jusX5-IYJ_9TBrGAH8-220" value="Đánh giá " style="text;strokeColor=none;fillColor=none;spacingLeft=4;spacingRight=4;overflow=hidden;rotatable=0;points=[[0,0.5],[1,0.5]];portConstraint=eastwest;fontSize=12;fontStyle=1" vertex="1" parent="t0jusX5-IYJ_9TBrGAH8-219">
          <mxGeometry y="26" width="190" height="30" as="geometry" />
        </mxCell>
        <mxCell id="t0jusX5-IYJ_9TBrGAH8-221" value="Mẫu đánh giá" style="text;strokeColor=none;fillColor=none;spacingLeft=4;spacingRight=4;overflow=hidden;rotatable=0;points=[[0,0.5],[1,0.5]];portConstraint=eastwest;fontSize=12;fontStyle=0" vertex="1" parent="t0jusX5-IYJ_9TBrGAH8-219">
          <mxGeometry y="56" width="190" height="30" as="geometry" />
        </mxCell>
        <mxCell id="t0jusX5-IYJ_9TBrGAH8-222" value="Người đánh giá (nhân sự)" style="text;strokeColor=none;fillColor=none;spacingLeft=4;spacingRight=4;overflow=hidden;rotatable=0;points=[[0,0.5],[1,0.5]];portConstraint=eastwest;fontSize=12;fontStyle=1" vertex="1" parent="t0jusX5-IYJ_9TBrGAH8-219">
          <mxGeometry y="86" width="190" height="30" as="geometry" />
        </mxCell>
        <mxCell id="t0jusX5-IYJ_9TBrGAH8-225" value="" style="edgeStyle=entityRelationEdgeStyle;fontSize=12;html=1;endArrow=ERoneToMany;entryX=0;entryY=0.5;entryDx=0;entryDy=0;exitX=1;exitY=0.5;exitDx=0;exitDy=0;" edge="1" parent="1" source="t0jusX5-IYJ_9TBrGAH8-224" target="t0jusX5-IYJ_9TBrGAH8-216">
          <mxGeometry width="100" height="100" relative="1" as="geometry">
            <mxPoint x="4770" y="811" as="sourcePoint" />
            <mxPoint x="4870" y="711" as="targetPoint" />
          </mxGeometry>
        </mxCell>
        <mxCell id="t0jusX5-IYJ_9TBrGAH8-226" value="" style="edgeStyle=entityRelationEdgeStyle;fontSize=12;html=1;endArrow=ERmandOne;startArrow=ERmandOne;entryX=0;entryY=0.5;entryDx=0;entryDy=0;exitX=1;exitY=0.5;exitDx=0;exitDy=0;" edge="1" parent="1" source="t0jusX5-IYJ_9TBrGAH8-220" target="t0jusX5-IYJ_9TBrGAH8-205">
          <mxGeometry width="100" height="100" relative="1" as="geometry">
            <mxPoint x="4770" y="811" as="sourcePoint" />
            <mxPoint x="4870" y="711" as="targetPoint" />
          </mxGeometry>
        </mxCell>
        <mxCell id="t0jusX5-IYJ_9TBrGAH8-227" value="" style="fontSize=12;html=1;endArrow=ERmandOne;startArrow=ERmandOne;entryX=0;entryY=0.75;entryDx=0;entryDy=0;exitX=0;exitY=0.5;exitDx=0;exitDy=0;edgeStyle=elbowEdgeStyle;" edge="1" parent="1" source="t0jusX5-IYJ_9TBrGAH8-222" target="t0jusX5-IYJ_9TBrGAH8-173">
          <mxGeometry width="100" height="100" relative="1" as="geometry">
            <mxPoint x="4730" y="751" as="sourcePoint" />
            <mxPoint x="4830" y="651" as="targetPoint" />
            <Array as="points">
              <mxPoint x="4330" y="641" />
            </Array>
          </mxGeometry>
        </mxCell>
        <mxCell id="t0jusX5-IYJ_9TBrGAH8-228" value="" style="edgeStyle=entityRelationEdgeStyle;fontSize=12;html=1;endArrow=ERoneToMany;entryX=1;entryY=0.5;entryDx=0;entryDy=0;exitX=0;exitY=0.5;exitDx=0;exitDy=0;" edge="1" parent="1" source="t0jusX5-IYJ_9TBrGAH8-207" target="t0jusX5-IYJ_9TBrGAH8-173">
          <mxGeometry width="100" height="100" relative="1" as="geometry">
            <mxPoint x="4510" y="607" as="sourcePoint" />
            <mxPoint x="4610" y="507" as="targetPoint" />
          </mxGeometry>
        </mxCell>
        <mxCell id="t0jusX5-IYJ_9TBrGAH8-229" value="" style="edgeStyle=entityRelationEdgeStyle;fontSize=12;html=1;endArrow=ERoneToMany;entryX=0;entryY=0.5;entryDx=0;entryDy=0;exitX=1;exitY=0.5;exitDx=0;exitDy=0;" edge="1" parent="1" source="t0jusX5-IYJ_9TBrGAH8-212" target="t0jusX5-IYJ_9TBrGAH8-209">
          <mxGeometry width="100" height="100" relative="1" as="geometry">
            <mxPoint x="4800" y="371" as="sourcePoint" />
            <mxPoint x="4900" y="271" as="targetPoint" />
          </mxGeometry>
        </mxCell>
        <mxCell id="t0jusX5-IYJ_9TBrGAH8-230" value="" style="edgeStyle=entityRelationEdgeStyle;fontSize=12;html=1;endArrow=ERmandOne;startArrow=ERmandOne;entryX=0;entryY=0.5;entryDx=0;entryDy=0;exitX=1;exitY=0.5;exitDx=0;exitDy=0;" edge="1" parent="1" source="t0jusX5-IYJ_9TBrGAH8-171" target="t0jusX5-IYJ_9TBrGAH8-168">
          <mxGeometry width="100" height="100" relative="1" as="geometry">
            <mxPoint x="4800" y="371" as="sourcePoint" />
            <mxPoint x="4900" y="271" as="targetPoint" />
          </mxGeometry>
        </mxCell>
        <mxCell id="t0jusX5-IYJ_9TBrGAH8-231" value="" style="edgeStyle=entityRelationEdgeStyle;fontSize=12;html=1;endArrow=ERmandOne;startArrow=ERmandOne;entryX=0;entryY=0.5;entryDx=0;entryDy=0;exitX=1;exitY=0.5;exitDx=0;exitDy=0;" edge="1" parent="1" source="t0jusX5-IYJ_9TBrGAH8-156" target="t0jusX5-IYJ_9TBrGAH8-165">
          <mxGeometry width="100" height="100" relative="1" as="geometry">
            <mxPoint x="4560" y="141" as="sourcePoint" />
            <mxPoint x="4690" y="132" as="targetPoint" />
          </mxGeometry>
        </mxCell>
        <mxCell id="t0jusX5-IYJ_9TBrGAH8-232" value="" style="edgeStyle=entityRelationEdgeStyle;fontSize=12;html=1;endArrow=ERmandOne;startArrow=ERmandOne;entryX=0;entryY=0.25;entryDx=0;entryDy=0;exitX=1;exitY=0.5;exitDx=0;exitDy=0;" edge="1" parent="1" target="t0jusX5-IYJ_9TBrGAH8-157">
          <mxGeometry width="100" height="100" relative="1" as="geometry">
            <mxPoint x="4560" y="113" as="sourcePoint" />
            <mxPoint x="4690" y="86" as="targetPoint" />
          </mxGeometry>
        </mxCell>
        <mxCell id="t0jusX5-IYJ_9TBrGAH8-233" value="" style="edgeStyle=entityRelationEdgeStyle;fontSize=12;html=1;endArrow=ERmandOne;startArrow=ERmandOne;entryX=0;entryY=0.5;entryDx=0;entryDy=0;exitX=1;exitY=0.5;exitDx=0;exitDy=0;" edge="1" parent="1" source="t0jusX5-IYJ_9TBrGAH8-172" target="t0jusX5-IYJ_9TBrGAH8-189">
          <mxGeometry width="100" height="100" relative="1" as="geometry">
            <mxPoint x="4570" y="232" as="sourcePoint" />
            <mxPoint x="4700" y="210" as="targetPoint" />
          </mxGeometry>
        </mxCell>
        <mxCell id="t0jusX5-IYJ_9TBrGAH8-234" value="" style="edgeStyle=entityRelationEdgeStyle;fontSize=12;html=1;endArrow=ERmandOne;startArrow=ERmandOne;entryX=0;entryY=0.5;entryDx=0;entryDy=0;exitX=1;exitY=0.5;exitDx=0;exitDy=0;" edge="1" parent="1" source="t0jusX5-IYJ_9TBrGAH8-186" target="t0jusX5-IYJ_9TBrGAH8-197">
          <mxGeometry width="100" height="100" relative="1" as="geometry">
            <mxPoint x="4550" y="340" as="sourcePoint" />
            <mxPoint x="4680" y="421" as="targetPoint" />
          </mxGeometry>
        </mxCell>
        <mxCell id="t0jusX5-IYJ_9TBrGAH8-235" value="" style="edgeStyle=elbowEdgeStyle;fontSize=12;html=1;endArrow=ERmandOne;startArrow=ERmandOne;entryX=0;entryY=0.5;entryDx=0;entryDy=0;exitX=0;exitY=0.25;exitDx=0;exitDy=0;elbow=vertical;" edge="1" parent="1" source="t0jusX5-IYJ_9TBrGAH8-173" target="t0jusX5-IYJ_9TBrGAH8-186">
          <mxGeometry width="100" height="100" relative="1" as="geometry">
            <mxPoint x="4330" y="426" as="sourcePoint" />
            <mxPoint x="4430" y="326" as="targetPoint" />
            <Array as="points">
              <mxPoint x="4330" y="377" />
            </Array>
          </mxGeometry>
        </mxCell>
        <mxCell id="t0jusX5-IYJ_9TBrGAH8-236" value="Ứng viên" style="swimlane;fontStyle=0;childLayout=stackLayout;horizontal=1;startSize=26;horizontalStack=0;resizeParent=1;resizeParentMax=0;resizeLast=0;collapsible=1;marginBottom=0;align=center;fontSize=14;" vertex="1" parent="1">
          <mxGeometry x="3880" y="57" width="190" height="206" as="geometry">
            <mxRectangle x="730" y="290" width="130" height="26" as="alternateBounds" />
          </mxGeometry>
        </mxCell>
        <mxCell id="t0jusX5-IYJ_9TBrGAH8-237" value="Tên ứng viên" style="text;strokeColor=none;fillColor=none;spacingLeft=4;spacingRight=4;overflow=hidden;rotatable=0;points=[[0,0.5],[1,0.5]];portConstraint=eastwest;fontSize=12;fontStyle=1" vertex="1" parent="t0jusX5-IYJ_9TBrGAH8-236">
          <mxGeometry y="26" width="190" height="30" as="geometry" />
        </mxCell>
        <mxCell id="t0jusX5-IYJ_9TBrGAH8-238" value="SĐT" style="text;strokeColor=none;fillColor=none;spacingLeft=4;spacingRight=4;overflow=hidden;rotatable=0;points=[[0,0.5],[1,0.5]];portConstraint=eastwest;fontSize=12;fontStyle=0" vertex="1" parent="t0jusX5-IYJ_9TBrGAH8-236">
          <mxGeometry y="56" width="190" height="30" as="geometry" />
        </mxCell>
        <mxCell id="t0jusX5-IYJ_9TBrGAH8-239" value="Email" style="text;strokeColor=none;fillColor=none;spacingLeft=4;spacingRight=4;overflow=hidden;rotatable=0;points=[[0,0.5],[1,0.5]];portConstraint=eastwest;fontSize=12;fontStyle=0" vertex="1" parent="t0jusX5-IYJ_9TBrGAH8-236">
          <mxGeometry y="86" width="190" height="30" as="geometry" />
        </mxCell>
        <mxCell id="t0jusX5-IYJ_9TBrGAH8-240" value="Người giới thiệu" style="text;strokeColor=none;fillColor=none;spacingLeft=4;spacingRight=4;overflow=hidden;rotatable=0;points=[[0,0.5],[1,0.5]];portConstraint=eastwest;fontSize=12;fontStyle=1" vertex="1" parent="t0jusX5-IYJ_9TBrGAH8-236">
          <mxGeometry y="116" width="190" height="30" as="geometry" />
        </mxCell>
        <mxCell id="t0jusX5-IYJ_9TBrGAH8-241" value="Ghi chú" style="text;strokeColor=none;fillColor=none;spacingLeft=4;spacingRight=4;overflow=hidden;rotatable=0;points=[[0,0.5],[1,0.5]];portConstraint=eastwest;fontSize=12;fontStyle=0" vertex="1" parent="t0jusX5-IYJ_9TBrGAH8-236">
          <mxGeometry y="146" width="190" height="30" as="geometry" />
        </mxCell>
        <mxCell id="t0jusX5-IYJ_9TBrGAH8-242" value="Người duyệt (nhân sự)" style="text;strokeColor=none;fillColor=none;spacingLeft=4;spacingRight=4;overflow=hidden;rotatable=0;points=[[0,0.5],[1,0.5]];portConstraint=eastwest;fontSize=12;fontStyle=1" vertex="1" parent="t0jusX5-IYJ_9TBrGAH8-236">
          <mxGeometry y="176" width="190" height="30" as="geometry" />
        </mxCell>
        <mxCell id="t0jusX5-IYJ_9TBrGAH8-244" value="Chiến dịch tuyển dụng" style="swimlane;fontStyle=0;childLayout=stackLayout;horizontal=1;startSize=26;horizontalStack=0;resizeParent=1;resizeParentMax=0;resizeLast=0;collapsible=1;marginBottom=0;align=center;fontSize=14;" vertex="1" parent="1">
          <mxGeometry x="3880" y="376" width="190" height="236" as="geometry">
            <mxRectangle x="730" y="290" width="130" height="26" as="alternateBounds" />
          </mxGeometry>
        </mxCell>
        <mxCell id="t0jusX5-IYJ_9TBrGAH8-245" value="Tiêu đề" style="text;strokeColor=none;fillColor=none;spacingLeft=4;spacingRight=4;overflow=hidden;rotatable=0;points=[[0,0.5],[1,0.5]];portConstraint=eastwest;fontSize=12;fontStyle=1" vertex="1" parent="t0jusX5-IYJ_9TBrGAH8-244">
          <mxGeometry y="26" width="190" height="30" as="geometry" />
        </mxCell>
        <mxCell id="t0jusX5-IYJ_9TBrGAH8-246" value="Đề xuất tuyển dụng" style="text;strokeColor=none;fillColor=none;spacingLeft=4;spacingRight=4;overflow=hidden;rotatable=0;points=[[0,0.5],[1,0.5]];portConstraint=eastwest;fontSize=12;fontStyle=0" vertex="1" parent="t0jusX5-IYJ_9TBrGAH8-244">
          <mxGeometry y="56" width="190" height="30" as="geometry" />
        </mxCell>
        <mxCell id="t0jusX5-IYJ_9TBrGAH8-247" value="Vị trí tuyển dụng" style="text;strokeColor=none;fillColor=none;spacingLeft=4;spacingRight=4;overflow=hidden;rotatable=0;points=[[0,0.5],[1,0.5]];portConstraint=eastwest;fontSize=12;fontStyle=0" vertex="1" parent="t0jusX5-IYJ_9TBrGAH8-244">
          <mxGeometry y="86" width="190" height="30" as="geometry" />
        </mxCell>
        <mxCell id="t0jusX5-IYJ_9TBrGAH8-248" value="Hình thức làm việc" style="text;strokeColor=none;fillColor=none;spacingLeft=4;spacingRight=4;overflow=hidden;rotatable=0;points=[[0,0.5],[1,0.5]];portConstraint=eastwest;fontSize=12;fontStyle=0" vertex="1" parent="t0jusX5-IYJ_9TBrGAH8-244">
          <mxGeometry y="116" width="190" height="30" as="geometry" />
        </mxCell>
        <mxCell id="t0jusX5-IYJ_9TBrGAH8-249" value="Số lượng" style="text;strokeColor=none;fillColor=none;spacingLeft=4;spacingRight=4;overflow=hidden;rotatable=0;points=[[0,0.5],[1,0.5]];portConstraint=eastwest;fontSize=12;fontStyle=0" vertex="1" parent="t0jusX5-IYJ_9TBrGAH8-244">
          <mxGeometry y="146" width="190" height="30" as="geometry" />
        </mxCell>
        <mxCell id="t0jusX5-IYJ_9TBrGAH8-250" value="Người duyệt (nhân sự)" style="text;strokeColor=none;fillColor=none;spacingLeft=4;spacingRight=4;overflow=hidden;rotatable=0;points=[[0,0.5],[1,0.5]];portConstraint=eastwest;fontSize=12;fontStyle=1" vertex="1" parent="t0jusX5-IYJ_9TBrGAH8-244">
          <mxGeometry y="176" width="190" height="30" as="geometry" />
        </mxCell>
        <mxCell id="t0jusX5-IYJ_9TBrGAH8-251" value="Mô tả công việc" style="text;strokeColor=none;fillColor=none;spacingLeft=4;spacingRight=4;overflow=hidden;rotatable=0;points=[[0,0.5],[1,0.5]];portConstraint=eastwest;fontSize=12;fontStyle=0" vertex="1" parent="t0jusX5-IYJ_9TBrGAH8-244">
          <mxGeometry y="206" width="190" height="30" as="geometry" />
        </mxCell>
      </root>
    </mxGraphModel>
  </diagram>
</mxfile>
